<mxfile host="app.diagrams.net" modified="2023-06-18T18:36:47.343Z" agent="Mozilla/5.0 (Windows NT 10.0; Win64; x64; rv:102.0) Gecko/20100101 Firefox/102.0" etag="VdGA4i5HcY9fcnzcBElx" version="21.4.0" type="device">
  <diagram id="R2lEEEUBdFMjLlhIrx00" name="Page-1">
    <mxGraphModel dx="1314" dy="727" grid="1" gridSize="10" guides="1" tooltips="1" connect="1" arrows="1" fold="1" page="1" pageScale="1" pageWidth="1200" pageHeight="1920" math="0" shadow="0" extFonts="Permanent Marker^https://fonts.googleapis.com/css?family=Permanent+Marker">
      <root>
        <mxCell id="0" />
        <mxCell id="1" parent="0" />
        <mxCell id="xRkAMs9unRZzOuT88SSD-70" value="" style="shape=image;verticalLabelPosition=bottom;labelBackgroundColor=default;verticalAlign=top;aspect=fixed;imageAspect=0;image=data:image/png,iVBORw0KGgoAAAANSUhEUgAAAWQAAAJ5CAYAAACZu0r4AAAgAElEQVR4XuydBXgVxxbHD+7uXlyKFwo8SoECxaG4u3txKO7uDoHg7g6FYsWdFnd3DRACkTdnwt5uNtdy2Xuzyf2f9/V75O7u7MxvZv87e+bMTISA8/sCCAYCIAACIBDqBCJAkEO9DpABEAABEJAEIMhoCCAAAiBgEAIQZINUBLIBAiAAAhBktAEQAAEQMAgBCLJBKgLZAAEQAAEIMtoACIAACBiEAATZIBWBbIAACIAABBltAARAAAQMQgCCbJCKCAvZ6DVpjt3Z7Fi3GqVNkVSev/f4Gdp15KTd147t2sbsue8/etPq3fvpyu17QY7HjhmDmlYtR2mTB95Pa0q+f8iemeqU+8VmPpTzezSpQ0kTxrf7/Oa/lads6dPaPB8ngIAlAhBktA27CYSmINsj6qmTJaHO9au7VJC9xEti2JzF8p4xokejIe2a2s0TJ4KAlgAEGW3CbgKKIHeqV43SWOiNmktMEdOIESPS6C6t7L6fcuK+k2dpx98n5J/ZRQ+0iegNR4wQwZTOgVPnaduhY/LvXJkzUKNKZYLcw5k95IEzPemTz2fT/cb83poiqPIW4sLiArcmAEF26+oPWeFDQ5C/+PpSv2nzZUZLFsxL5X8qZDbTpy9dpVW79stjWlF0piAraadLkYzuPn5KebJmpAYVSocMLM4Gga8EIMhoCnYTCA1Bnrt2K924/1Dm0ZJvWSmAkr88WYQoVvxPFJ0lyMpLIGqUyNSvVUMaNHMhRRJfAaMc+AqwuxJwYrgmAEEO19Wrb+FCQ5CVe1YsVpiKF8hjtUCj5y+nV++8KEY04ctt39R0rrMEubcY5OSlEtlvzf5r5T69mtWlxPHj6QsfqbkFAQiyW1SzPoUMTUHu26I+JYgbx6GCOEOQAwICqPfkuUF67jsOn6B9J85SonhxqXfzeg7lFRe5NwEIsnvXf4hK72pBfu31nkZ5LJN5HNGpBUWJHDlE+dW6MvQMe5uxcqP0GSeMF4f6NK8vb/X5yxfqP31BEJF2KMO4yG0JQJDdtupDXnBFkP+X93uKHye2xQRKFMgb5Jg9IWvKBWo/8eMXL2nSkrXy0LdEL4QkXE+dcWtxyIq7YliH5hQtahTTZcq9KhQrRFoOISeOK9yNAATZ3Wr8G8prr7BpB98cFeRHz1/S5KXGE+RHz1+IfK0z2xP+98ZtWrxlN0WPGpWGdmj2DbRxqTsSgCC7Y607WGZFkIvmy2m1h1z8h6CDb+o45JGdW1q9uzq+WO8ecn4xU6922ZI2S9/nq2/YUg95wIwF5PP5C+XLmonqVSgVJD0/f3/qO2We/I0FmYUZBgL2EoAg20sK55miCFw1MeTt+w80Yt5SSX54xxbE4WWOmN6Dekp6Y8QU7/+mp/yXM565xzP4MqVNRa1rVHIky7jGTQlAkN204h0ptqsH9TiPplCypiKULIFjoWR6CjLPCOSZgfYYizWLNgwE7CUAQbaXFM5zeQ9ZLcg//5CbKv1cxGotDJwhpjF//kwxxZoSg1VrSugpyH9M9SBfPz+7W0OLahUo63dp7D4fJ7o3AQiye9d/iEofGj3khZt30qWbd2U+7Z2p97PwYVf6ubCpbHoJMq9ZwWtXsNmK+pi/YTtdvXM/SFhciGDjZLckAEF2y2p3rNChIcj+/gHUZ0rgBIzCuXNQ9VLFzGZ+y/4jdOjsP2aFWy9BHrdoFT1/9caul8NrMWNwlJg5KMXbgq/ZsVrAVeGZAAQ5PNeuzmXTQ5CH2REKpp0AcuHaTVq6bY8sTaqkiamTmKqsjsZYuEn0om8F9qKrlixKRfPmDFJyvQRZSadb49qUPFECm3SV8wvnyk7VS/9s83ycAAIQZLQBuwl8qyDbeyNeh4LXo1CbEt9rLY3iws9c0YyfWQ9B/uf6LVqy9c8Q9Xh5UX4O+eOXx2ixLCcMBGwRgCDbIoTjJgKhKcicCY7x3X7oOB06cyFIrfyQI6twZfxkcWq1HoI8ZPYi+uD9iZIlik/dG9exq1V4+/jIFeDYejatQ0kS2N59xK6EcVK4JQBBDrdVi4KBAAiENQIQ5LBWY8gvCIBAuCUAQQ63VYuCgQAIhDUCEOSwVmPILwiAQLglAEEOt1WLgoEACIQ1AhDksFZjyC8IgEC4JQBBDrdVi4KBAAiENQIQ5LBWY8gvCIBAuCUAQQ63VYuCgQAIhDUCEOSwVmPILwiAQLglAEEOt1WLgoEACIQ1AhDksFZjyC8IgEC4JQBBDrdVi4KBAAiENQIQ5LBWY8gvCIBAuCUAQQ63VYuCgQAIhDUCEGQD1piyfm+72lUofaoUBswhsgQCIOAMAm4pyEfOXaSN+/6WPEd2akGRI0e2ynbOmi1088EjSps8KXWsV80Z9RAkTQiy0xHbvMGOv4/TvpPnKFaM6DSobROb5+txwq7DJ2jvibMuvace+UYa+hFwe0GOGT262DLe+gMHQdavwYWVlKav2ED3njyT2bW127VeZZq5ahPdefTEpfe0lvfj/1yWhwuJPQFhriHg9oLMmCuJfdh+FvuxWTIIsmsao5Hu4ufnR38eO035smUW2zbZ3tBUj7z7+fnLe+bNmpGSJ06oR5IOp+EfIHb7nhy42/eY39uQ2BYQ5gICEOSvkEd3aUURI0Y0ixyC7IKWiFsYigAEOXSqw60FOYJ47QeIngBb/Dix6Y+WDb5ZkB8/f0mfv/hSkoTxKWb0oDsn21vF5nzIr955kdf7D5Q4fjyKFTOGXUl98vlMz9+8pciRIskeV2h1cl6LvL/x+kCJ4sWhuLFjBcs783ry4iVFixpF9Ebt7xkyk7de72WaieLFtYuJM07y9fWlh6Leo4qxiBRJEpm9xePnr8jXz5eSJkwgy/mt9vDpc+KWm1Lcz1JHwtw9Pn/5Qo9fvJK7eicVbdSShVSQ34sNYF+8fiPKFpVShKB3/0Wwe/ryNUUSnSGu+4gRQ6uVfmuN6HO92wtyjya1adzCVZJmrV+LU8HvswUja6uHzMI3YckaKQ5aK//Tj1SyYL4Q1ZZakG/ef0S7j54Kcj2/SDrWrUZpkicxmy5vPc9b0GuNB6i6NapFcWLFNB1S7pUrcwZqVKmM2fSUczrXr06pk5m/p3Khci5zPXbhEv199t9geW9c+Vf6PuN39EK8LKYsW08+nz8HOSeNGDztZGXw1HPjDrp8+16wvGZMk5La1Kwc5Pcb9x7S3HVbxSd3BPHp3dps+ZgVM4skXlyjOreU5yzbtofOX7sp/632Ie8XA33bxYAfW5/m9UXbWSl3w1Zbtu/SUPNqFeTLnv3Cdx8/DXI8apQooh5qUkLNS2TFjr/o7JXrwe6pXOwr3CjcVvkFpzYW+F5N6wapVz6+cudfdObydcqVOT1VFm65SUvXkrdoq2or8H1Wqv1rCdNPw+ctoXfvP5rlxOL/e8OaQY79Kdomu1m0xi/ILg1rUHQh0Obsxv2HtGDDDvGS8gtyOIp4qXVpUF2+uNzR3F6Q+SFdsGE7XblzX/rJRrO/TNMSrAnyW9FrHTFvqemKAjmyyB7syX+v0MdPPvL3DCJ0ra0IYbPXFFFLLnoMT16+kj3cPMKv+FII2J1H/z3cQ9o3lT0dtc1avZluP3wsf0qXIhnlEMLn9eGjEMZ/TKcN7dDM9KCwuLDIWBKsUxev0OrdByyKhLZMSt75gXz59p38SuA8cC/o/tdBMr6mTa3KxFzZsgoB4/P+uX7b9IByL6ureHlobcAMT5OAswBzGe+L3uL1uw/kqdzTGiXcT4qpe3p9WtSnhHHjBEuz//QF4qvmC1UtWZSK5s0pj9sjyEpCebJkFL3VALpw7ZYp7ZyZ0hOLDr+s44kefOZ0qemeEOZnr96YzuF8cn4VsybIHz99osGzFpnOLZLne/IXLwJl4I0PjOzUUkQMRTKdowhy4gTxRO/1rfw9W/q0FE28EJSXDf9WruiP9MuPgZ2GJVt3k7dot/zhyJFFbMyZn4n4ceJQ7bIlTOlPX7lRlomNy5gve2bxJfSezl25YTqnf+tGFFfVAeADfG/my8b1/oN4Znx9/eiYGERUvlh7Nq1DSRJY7sGbbhDO/gFBFoKsfmh5AKd749pBqtmaIP8x1UOKSKpkialL/RpBrnv4/AVNWbpO/tamZiXRsFPZ1XwUUeOTm1UtR9kzpDNdx594/abNl3/zQCQPSCr2VrgFRngEvhz6tWooHxLFuKH3/jpIw+6Unk3qyEPqB71P83rBem0TF6+RL4UcIg9NRV5smTrv2jzwQ/fHNA9TEuwm6itEkl8Gih06c4G2HDgq/xwhQhK5x6SYUg/89/COLShqlP+OcS+175R58lT+FO/xtXz895Rl6+jhsxeURYhiy+oVgxSB647rkE0tkPYIcsmCean8T4WCpLdoyy66eOOO6TcuXwLVS8Dbx4cGzVwoj5cp8gOVKVzAdK41QeYBNm6n5r5kxnqulF8bWrebIsh8A45n57h2tU0TkSTKS1IbSWLLZXHp1l1auGmnTI6fF/XAJ7c1bjdPX72W9cf1qDalLMXy56bKxf9rv7LOReeGOzlsropuCZK5UP4Dgvz1M5YbJjdQtkaVfpWfeYpZEuQj5/4V8cyH5WmWBgXnic/l6+KzmX1jo7uY/2TWtgFF1EqKXkt50XvR2mzRs7wlei/aNLccOCJ6x4FhU+xe0NoV8Zm/QHzua3vDygOSO0sGalgxqNtCyYv2obPUbpXzfxFumnLCXaO1fSfP0o6/T8iftaKqnKukwW4Ldl9of+eeszk/JX8JDJu7RJ7OXz6K0HPvfMLi1Wa/Ag6cOk/bDh2TPWfuQStmjyCbEwzuaXOPmy2/6DHWLfdLMAYe67fRNdGj17pmLAnyXyI2eaeIUWYzd0+fz19owIzAe6qPK4LMLo1hHZoHywe7PkbNXy5/17ZfW4Ks1FG+bJmoXvlSwdLmKJW+X190dcuVFCyyBKvHwSK+O6Zwo6mNe/19vr5YR4s6jOhm4R0QZJVfcQb7+0QcqFawLAny6AXL6dVbL8ot/K8NLfhfubEpjdfeN76tiSEb/jpER89fsviABns6vv7AvSjuTWkfXP7sXbfnYLDfb4pP7jlrt4boPkrea5b+mX40E7/Kn/FzbaSppNH8t/LyE5tN3XO2xlG59n/ik/63X34KJgJatwX3VrnX2qRKWenXVsxRQVbXt7Z3rKS9SbzED4uXOfvyB4hPesUsCfKgmZ7S91uiQB6qUKyw2epVyq3+olIEOW0KMaFJjDmYM+U6tRuLz7MmyJZeANr0FVeg9otFuWcl0Tv+WfSSYf8RgCCrBFn92cu+yQ51f5OkLAmy0rDa165K36VKbrFdKed1qFOV0qW0fJ6SgC1B3rz/iMknbEmc3one4p/HTtGdh0+FrzFw4ITjXDkyQSvI6nL3blaPEsUPjFhg4WQBLSgGfmqpBn6sPUC2BPnWg8c0e83mYHlQp6mkwS4SdpWwTVu+XvqK2R/JfklLNlEMrj4RUQTx4sSifi0bmk5b++cBOiH8+tmFwDcTQq8VHS1HPQS5v3AbmYsqUepPOwvQkiCbvjoK5Qs2ZqAUcNvBY/Kf/BLklyFbiAS5vRhXiPbfAJw1QWbfMj8TWn+9tk7OXb1By7fvDVbXq3bto9OXrsnfmcFP+XJSCfFFpfanW2tj4fkYBFkz8n793gOat26brHPF72tLkHuKEe4kYuDEkplEqozoNea0PevpWwSZe+zmRv61edMK0Gjx6cpizQNUDSqWlqcr+bA0GGauvM4SZHY5sOvB1tfIpv2i9ykiO2KLgdWBbRqbsvhO+CWHC/+k+utH+TIwF51hREG2R4jUvmJnCbLCjQV8qBByS8bRJTPEwB+btr1dFYPo88Vgutp4JCE1L08gOkLqcQV7yh1ezoEgmwmFUh5+9l+xH8uWIHMombWZVYpINahQWkZL2DJHBVk9QJVX+Pa4p8QhVopZclnwccW/rDw8HA0wflFgOKC9rha1iFtyWTjaQ1Z6vpnEwGhrMUBqyZZtF+FqV29SnJjCHdAmaE9a4aq4EobNWUJeHz9Kf7s2nM+IgswhfVFUURTmGHAcsDLA5ixBPiuiKFbs2CujNYZ1DO6bVvKlhBxaa0MfRPzyiX8vCx/5SVOEBZ/Pa8bw2jHuZhBkM4Ks/oTnkCyODjC3uBBHLfCIMsdxcjynJVOEgHts3HOzZY4K8nAxoMWuCkuf9dYEWS2mHHK0R8SW8oOnjeSwN+96CzJ/tfDXi60XhFInHHbXW0SNqO3g6Qu09eBR6StuLHzGvSfNsZieEQW5a0MxmJnE/okzzhJkDm0b6bHMZl1wG1Ji6O15qfv7B8hOALdTtjFdg4eg2mp/Yf04BNnCZAF1rCSHV/FsMu1qb+wL5R6f0pM21xi8PnrTsDmLbTZe9bWOCnL/6fNlPi31xG0JsjL6z7147mWy2fsSUfLvLJcF+4W5l8ymjd9V7s0z1xSRbVWjEmVOGzTMUB0y2EAMwi7b+qdcq6Je+eCREEYS5KGzF9N7b285E3C4JoTMmgA5S5DVHRZzccZKnv6L3skooncC3WAcLXL38RMRBx9NDqSaM6UNjRSTdDgG350MgmxBkLkRqGMi+W+tIHPQ/0AxAs7WS/TGEpuZvqv02HjGEo9k22OOCvJAMWnik5j1Fi92TBGHHHzgS8kL58Fcj+WRmP47WczmUps9PRtzLxO9e8h8Dw6H4rAoDknk0EStcaSIMlHCUr45hpuFmeNj+f85ykE9c1FJ00iCrA7JZBcBuwq09kz412+JCUGFc+cwHfoWQZZt+usXhDqEUElcaWs8sWNwu6bB8qP2H/NxZRmBI+dFqOhfgaGilupIuS/PmuTZk+5kEGQrguwrohL+mBo42YDN3HrIs8XMOH4Q2DrU+U1EUSQznc8TFZRptSERNkcFWR3jyzPOeOYZm9ofrGTO1sPA55UpLCYuFPlv4oI9D4azesh8byWemP+tjZleL8SYZ3qxtRWzADOkTmk2u//euE2Lt+w2HbPEwUiCzJnlFz93ANg4SoSjRRTjOGqOp2ZTfz3oJcgtqpUXsyn/ux/fRz1eEVtESgxUrRl99c49MWC3Q+bH3EQWpY3wcW0suvLC5GMheWbsaZth4RwIshVB5go8cl4sZv9X4GL2lhaoH79otRC91xbr29pKcuYuclSQOS0lrtZcuq1qVDRFkFhq7GuFsJ34KmwjxGy4KKrZcPY0aGcKMt//rFibYYVYo8GSlS9WiEoWyGs1q0oef/4hj5jpaD6u12iCzAXiyR8cA2zJeCF9DiNT7FsFefCshabp/5wmL2LEbVmxjyJ+e/DXWYfm8pRWhI5yxITWePIMT4FXpklrj3OEBU8DjxTJ/OqL9rTDsHqOWwryiX+uiAVijsnQGnt2gxglBjB8RCNKJRbWaaWZeqtUPPv4Ji1ZK3oxgesAcExlKdHD5GD+kBo/CGw8MYIbtdZ2CD/ccbFwD5u5z8XrInZ48eZdMu6Yy8iLELWtVUWuDjbka9pVS/4k/KeZgqX9Sqw/MXrBCum7Yx9eSE3Je5US/wsyO0tJ565Yi8NzU2DvyVze5e9f88gzwHhQ1ZxxyBSv2cEDQVxGnrln724uHDXzWKwuN0AMslqKfV0j1u+4ePN2sHzymiA8WGVP/nl2ozl3iFJ/vDlCr2Z1TcVbt+eQWM8j0HdviQ2H73EU0BdelEdUKItk4dzZg0yhVxJcv/eQWF/jpowg0U4ZV85RWHNoo7mFgHic5N7jZ3KdF47YMfe88MJMvLsKu5P4PH4pdBbLCNgawD5w6hztEddyO+XFMrguqpYoanWAPKTtMayd75aCHNYqyZX5XbN7P528eFWuMcBrDcBAAARcRwCC7DrWYeJOyue8O64jECYqCJkM1wQgyOG6eu0vHPvzFm7eSZdv3ZOfuOYWJ7I/NZwJAiDgCAEIsiPUwtE16pAqpVjaZS/DUXFRFBAwNAEIsqGrx/mZeyAW7JkqFu5h4/jWHmKWnnodZefnAHcAARBQCECQ0RZAAARAwCAEIMgGqQhkAwRAAAQgyGgDIAACIGAQAhBkg1QEsgECIAACEGS0ARAAARAwCAEIskEqIjSzwZuwXrt7X06XLvu/gqGZFdwbBOTUdF6qIGa0aMQb/WqNp8vvOHxc/pw4fjwqZGbvxrCKEYJsoeY8xFoJ78Vi7zxBgtcLCM+298QZ2iV2bIghtuQZYmVLnvDMAGUzDoGhYv3w92Id8cRib8deYo9HrSnrkPOO1bxzdXgyCLKZ2lRvj86L5PyUL1d4qvNgZYEgh+vqDXOFsybIyhKsvNDRcCvbR4W5Qn/NMATZQs2NESue8VuaVwTjHUO+1ZQ1InjSRT+xG7GRDIJspNpwbV6Wi73xzomtutiMsv6wJUHm6f28yQKvCjdCrETIO/WEN4Mgu6hGIcguAo3bhIhAWBNk3vCBXYjhUYy54iDIIWq+jp8MQXacHa50HoGwJMjOo2CclENdkHlfM2Xzyt7Cgc+Lah/7uvh6I7ERJW8Bo7bN+4/I47yFDFvsmNFFZMCPVkdab4gF21fu+EvuyMzGW6mXKvQD/SJGcMd4rpC/8b3VpvzeSWxHzguJa23Vrn107uqNwMW1ZZqRKV/2zFSj9M+81rbJlHRevnknf+O3e4K4sYPdUzmPN358Jc7lB4U3LM2cNjXxTh+K8SLgy7bvpUs375i2h+LNLwvkzEq/iUXnrdnqXfvp1KWrplOSi0XdeRH805ev2RzUY+a8gzC7cRTLmCalvJ7Lbsl4b7XVgtXz14E7CbPxfeuULUmpkia2ml/1Qd56ibcqiiD+x4u687rNpy5dM+06kVDsZ9ik8q9iV+ZEFtPkxdq3/32cXr31Mp3DK9s1EBtw8i7VWpu3biu9eudFJcTOIlnFlknTV2wwtSH15z234QUbd9DN+49MSfAecrwjCbcxR20FuxPEZrPKzhrx48Smar8Uo+wZgm6npE5/hygf73Kj7CzC7S1HhnRyk1H14LTS3t5/8JYRDWyJxCAaGy9mb44HbyzAqwEqxufX/rUkpU+VPMRF5DIxs6t37puuTZ8qBbUWbX2E2BDC3KDeB+9PNH3lBnm+9nlVEjlz5bpoyyfo9bv3pnR5gwbeg5H5Gd1CXZBZdHi3ZLZM4gG/oWrUjcUDljNTenmMGw3vvsuN35ylSZ6UWDy1phZ47bFkiRKKfdpeyZ+1/jOlR6vdFofzO2iWp0mItWkGbj/TwrQ5o3r/MO256nsq5xXLn4sOnfnHdGqWdKlNuz3wgMZEsVsE7/xhzvjeozq3Eg9eUN8aN37elFJ58LTXfpcyOd159MRilAVv+c5bv1sy3kUls8in1lhQzn71T5q7lgdLedDUHjsrHrQV4qXKxgM6vA2QOav2y09UJM/3wQ7x9vK8t6Alq/RzESGgQRfkH7dwlXiRvBHp5aCj5wN3aFFMqTsWFN69xJLxy3xwu5BFArDwDJu7RO7AYc6yiZcDvwjV5i/qeJDYd8/SFk/cNv5o2cC0cJS1dtlTLDCVJEF8U/JvxS4lvOGvJfuf4P2b4G6vcd3xVmPKfpPa65Rd3rVRFizS7F9mM+fvHuO5kl6++e/Fr023eqliQTaBtTe/rjzPUILMBc8rtqDnWNhoYpfmyKInq2wro2xxz3GHvzesaRpoe/jsBU1Ztk4ya1q1nOwNKPbu/UcaPm+J/JN3Km5YsYzc7oftqoi7nb/+vwfJXkHm9Dhd3p6mb4sGsrfNxr1vFi5+iMztxGvLZaF+QPhNzj1lHgD0D/CnuLFiyXsou0Z/n/E74peVUhavj6Kcc5fKnhRfyw+e2sYLYXkmhIWN9zhTtoXS9uzMhb3NWLWReNslth5NalPShAnkv/leS7ftEVsO3ZJ/84g3C6ViH8SWVkPEC5StRbUKpq2YeHurLQeOEG+FxNZXbB2UIG6cIPk194dakPk495K5LbDx5p/D5vLLOvCrSVuXyi4ofKxP8/qUMF7g/bgMLPL8pcM2QuzjptQn/60IspKfNjUri/LHl19nSp6VeuMvrrL/+29D2CcvXpm+/ArmzEa1yhS3WUblBGVz3PTiRdlGbNiq9Gy5Bz5n7RZ5Wn+xW3bcWDFNafKKfbxyHz8zvJN2DBHDq7AZ6bFU7Eb+RX7J8NKqarPHZaGUkZ+tJuIZU173F67dEm3gT5mctuNirbDqfR97i93ald44v4hGL1hueqmERJCXb98jvybYuP0rvWGu40ViO7NLt+7KY7wtGcfbG9UMJcilCuU3OzHhLxEnu1PEybIA8ZbkWtt15CTxvl7cUMZ0bWM6PGT2IuJKZjP3RlUvPWmvICuNs49oSPyZrLYXwtUw9qsLZHSX1kF6qvYKMouMep81Jf3T4vOc3SSWynJeNMZlolFqj/sJ8eg71UP+rhZGdb45ouSl2EtPK8gvRG9jrOh1sPVqKgQwQaAAqk1hrN2DT/m85RfXQBGporU+YrSce3V5smSULgNbphZkS+s1K4y1m9EqvzcTYpJd9cJW7qkc53xwfhRTC7K5HVQUoWcRZzHX2tYDR+ngmQuyUzG0QzNbRZTH+TP+yu17wTYUVS72EJ0IZRKPes9DpQzm6vjjJ7EZ6dd9Cge2aSLdfIrZEmTeX5H3WeTIBt7RWmvTlm+g+0+fUXLxtdmtcS2bZbz14DFxHDEbRxuZW+q1r9jpnV2BIRFkpfytalQSbr5UwfKhHGd3DH91GtUMJci2tqY391mpfaiGdWgueteBPTVr4snHuTfbZ8o8eW5IBZl76SnN+Cu9vvqptZtb2ivIzcWW69k0W67b23iUe/BLS+k9HxP+xPVi12xLLzNO21LYG3+K8ye5uR6/kie1y0ktWtwruSj83NxTG9K+abAi8IuS+fPOwuZ89NoL1IJsqZ2sEn7l02I/QEviYYmjsvU8f5lxp0AxRZBD+kmuXK8WH3tDypQ6ZPcbu+G0xl8YvSfPCdZmlessfZYr7cSxREwAACAASURBVJInU6g3drUlyEq62i8gJV/qmH17yjhX9PDZLWntJWUp7M2Wy8Lac/KH6JTwl40ll5a9z5izzzO8ICuxhwyCd+JlcTBnSsPp0aSO/KxUX6ftrSrXOyLISo+B0/i1SAEqLXaWtsfsFWRLvVhz9+CHjBspP6Rsk5etlf+vFmSlIcYV7o/+FuKfLQmy4iKxNTlGKRvvspwsUaBLgwWXe89sPPjDn/vfMqhijyCzj3zA9AXBxErL7osYB3jz/j19+RLo4pi5eqMcQNXWp0mQ8wofqY0BU+Ueb70+mL7KHj1/QavFS4LNHrFinyq7K9hGih43ux/MmcJbnebctVuF0D2Up/+QI4sYbCtheimbTeTrj9YEmQWM24+1/Ntzjvr+ypdRuaI/Whzw1EOQuT553MP3qxtrxqoN0qVVtWRRKpo3pzUkoXrM8IKsfivaQ0rxkao/ty09DI4IMl/Doqwe5OJeXuJ48ahtrSoUS/U5qM6vXoK8bs9BsSv0FdG7tDS0F1SQlfvyZxx/zpkzS4KsXNuudhUxkp7CIn6lh6ntnV0TvWuegq42dmGULJg3xDta2yPIakHT1jkPTE1Zuo7eC9+2JXNUkGet3ky3Hz622jztEWRlFpo97VwrkvxSnrVmE915+MR0OcfqJhD+ch6PYJeCObMmyPcePzNFNdiTJ3vKqLQpHpTkwUlz5qggc0TMNOFLV9yU5tKGINuoSfUnr7kKZeHjwTJ7rX2dqsRRAzw6zj0ca293RwRZyYe38Mtt2neYOMxGbeyH5QEO7foXegiyejCEw6l4URX1QJrSI1X3kJX7fp9RDMhUKeeQICtMLdWBMuBqrrHzlwp/onIImdbKCRfBLyoXgbU6/hZB5oHHJVsDB5/YZynD3ISvXplcMHq+GEgSvWtHBFn5iuC0q5YoSjnF4LEyaMT7FbJP2FobVJf5vhiUY0Gx18w9LxzBsPf4Wdp38myQZHhAr58Y7GKXhdqsCfK1uw/IY/02e7Nj11eAyddrITKHb+aIIJ8Srirla4QHbeuVLyUHCxXX3SihIZ9FhBYE+RsFmYVv0NcBCXvewMrt1J9SaoFSZ+dbBFmbzgMR7cFxqmzm/LXfKsh/nTgrBjZPyPTNDTDx7+Z8yMpv5qIvlDLY6iHXKVtCfAZntViTiii1rVWVMqS2HpPKYVnsX1Y+r9Whjd8qyPx5+se0oJ/Y/B3Re1Kgz7VuuZKUP3uWYLcZMGOBHNkPqSCzeLKIagc0lRtwKOHMVZvsFuSQ+mNtKSW/DHlAjsPBLLVLa4L89NVrmrBotd35t5UfdRu15ssNqSCr3ZONKou5C5mCzl3g+1rrNNiTb1edY3iXhboS7X14FXiKGA0TIVm8gafW9BJkJV31J7P2nt8qyJOXrqVHz1/KOEp2DZgzc4K8++hJsZzhGbMhT7YEecZKEfImJnbwBI4uDWpYbJPKfUeLUXh7V8abtGQNPRahYSkSJ6KujWrabO/29JB5QsRGzQDmGzFBYOT8wC8sSy90RwVZKXe9cr/ISUFaC6kgq9u6OhzMJhwbJ3A0C/tu2bRRBvYO6lnqBIQ0b9xpuSe+HFKIyUFdG5mPygipID8TL47xNl4cEGQ7a8qWy4KTmSYqkT//Ion4wVEijtCccSxqdOEuUBsHynuL32OIgcAhYkBQa+qBJ3uiLDbtP0yHz/5r9eFWHtKhYhlLdX6+VZB5NiPHtmYXfrdmmkkBnKF9oge942sPWv1FwLHG7ONl42gHJT5VzYJ7ceYmhnAvlgeL2CyNsiv50gqeUt5u4qHjmXla41l/vO4tx/NyLLIts0eQlXuqBzDt6XUq14W0h6xcx+4jHqTS2lLhJrnwNU7b3q87noDB/m5zMcNK+jyuwr54xXjwcLLwj2vrQJ0fJa8NKpSiPFkzmQ6pJ++Yy6MyKMyRSxzBZM64F64NAbVUn8yDubDxJCYef9Haf3MOgi6/aSnK4omY3DVx8Rq7yg+XhY0nzR5BZrEdKMSVzVxvTe1nVgd+PxUzsyaIGVpsLaqLyQnp0phyo3ZpmGvISgNWB7yrY3orFitMxQvkCVK6nUdO0F/Cf8emdZPME76468InZ2nNYeV+lqIsNu77m46cuyjTVge+89/symCXhmLaeytps8+UezpqU19rLm+DZy2ij5/Mx3JfunWHFm7aJZPTTvDgAH+eosw9Zu45q03dYysgXCG1hUvElqkF2dwLlvPB+ZHsRSy6MnlB/TmbWvT0O6t6+hxt0e/rLFG+jhdDL68SVltRFtwmuW2aaz+ewnd8WcQTK2avIKtnxfEEIB6QU5sy8Kd2i6nLmPW7NDLeXG0ct8zxy2zqsFD+e/+pc7T9UOBi7+byyDPfFJcHj1nw0gBq45hp9pNbe4Fo61Zpj+ZEnqd0K8sM2BuHrG5PGVOnlJNpFGOfev+vkTf8W4VihahEgbym4+zS6i/cXJWL/88Qs/jChMuC6akblbaClb/NuTTGCUF+bmHKLIuFMj3Vnh4y34dnmPF6GtasvuiF5FX1Qvjcd6LXM1wz/XRExxYU5evSnrYEmdNQDyBp7x8zRjT66O0jf+YAfnWsqdo1Yy7fPMDFD56ll4W1+3J6RXJ/T9VKBZ86a+s6c2Jtiat2pp6l8/JlyyQHdNTGk4Z48pAl41BKnjyhFUBbgszpKfVmLu24sWPKWZ1s9goyn3vg9HnadvCY1TamnZhkT4RGAQ6HE2uIqE3dIVJ+b1/nNzEwnsx0mrozYClTHFLJXyb2GM9qHS6mhlsy/rLkF529gszp8EuFXy620tS2D574xBFZbEaYxRdmBJmB8duOpwh/+hzYK1GM387ca4ylGUFWjvNUXfX6EPw7fyr3FtNvQzoxhK/lNRF4urZ2XQ3OBz8o2kkhSj4Wbd4pJksETuFkGyZmb/EUcTZ7BFk2Gs26EtxTKv/Tj/Ktr6TRuIpYAyRj4Bogiplbz4IFkRed4c9fdltY2zFE8Ser0+TBLPYtK7HHQW749Y9ZX90h6iA9znMmDsMTI+32mlqQuQc8WKyF4O0T+AJi4zSrinUx/mchxpTX1Fi18y85O1AxLjdPM1775wERShi46JJaOO0RZOY6QKwTol5bg7nyQkfpU6eQa4iwsZ+c/eX22kcRxz1SRH9o1+ywtjA7PxcsdCyy2nriXjMvBmXOtC+sdiJ8k/OuNo5553BPbZu3NBPTVjl9RF6HzlkSJD1uT31b1hdfe+eEa/CfEAky3+/4P1dow96DQeqYn0V+WSwRU7z/vX47WB3zYkz7Tp6zODPSVjn0Ph7qgqx3gUKSntq/GpIeTEjugXP1IWCPD1mfOyEVEAg9AuFekHngzlLP+Z6IIJguIgm0PaPQqw7c2RIBCDLahjsQCNeCzBEWHGnBa6Hyam9qUzv70wl/WQfhN4MZlwAE2bh1g5zpRyBcC/J7sSwl+6kUKyrWJGCfEs/q4ZXZ2DjshsNvYMYmAEE2dv0gd/oQCNeCzIg4VG2CiFFURlLV2Hi3iM71q+tDEqk4lQAE2al4kbhBCIR7QVZzfivWxXguQlwSxo1rWqTcIPWAbNggwNERSoiikRcYR0WCwLcQcCtB/hZQuBYEQAAEnE0AguxswkgfBEAABCwQ+FMsIcCTkhSDIKOpgAAIgEAoEYAghxJ43BYEQAAEtAQgyGgTIAACIGAQAhBkg1QEsgECIAACEGS0ARAAARAwCAEIskEqAtkAARAAAQgy2gAIgAAIGIQABNkgFYFsgAAIgAAEGW0ABEAABAxCAIJskIpANkAABEAAgow2AAIgAAIGIaCrIOet3Ypm9e8qNrnMEWrFm7B4Na3fc5AOL54eannAjUEABEDAEQK6CnKGCvVpyYi+VDRfLpkX/vvG1qVyw0BnW8kWXemu2IIpUfy4cs3jM6vmOfuWSB8EQAAEdCXgFEHOI7a89/rgTUWbdKRDC6dSgjixKaZqB+i/TpyRuysXVe0I/Pj5K4oXJyZFixKFdh4+SXnF9u2pkiaWheUdgN+9/0ClCuW3WPh/b9yW27bPWbuF5or/IMi6thMkBgIg4AICThHkT1++0IY9h2i72FKbt6RvUKGM2I79e3ry4pUQ6U5UuXgRuWPHkXMX6broQUcSPWjuTWdMk4Lef/wkhXr93kNUKFd2OnP5OlUt+T/6W2wD/vTlG7q+ZYnVHvfsNZshyC5oOLgFCICA/gScIsiWXBZZqzSmDZOHUY4M6WRJGvQdQU+FSO+ZN0EKcokCeWjB0N7y2MNnL6hY0850eeMi0ZuOIn/LUrkR9Wxah1rVqGSRBARZ/0aCFEEABFxDwKWCzKJ7asVsoggRZOlev/WiMm160K3ty6Ugt69TlXo0qSOPeX34SHlqtZTHFKvUsa/cLXpUl9YQZNe0D9wFBEDAhQRcJsgfvD9RrhrNKX6cWMGKx/5eewU5pxDk0RBkFzYR3AoEQMBVBFwmyFwgFt1rwgdsblNKCLKrqhz3AQEQMCoBpwvy5Y0LZUQFW+GG7SlTmlS0dFQ/+ffzV2/Ic/NO6tW0LnrIRm0hyBcIgIDLCDhVkEu0+J3uPX5Gg9s1ocaVy8pC5RV+4XfCP8wWKVJEurpZRE0InzJ6yC6rc9wIBEDAoAR0FWSDlhHZAgEQAIEwQQCCHCaqCZkEARBwBwIQZHeoZZQRBEAgTBCAIIeJakImQQAE3IEABNkdahllBAEQCBMEIMhhopqQSRAAAXcgAEF2h1pGGUEABMIEAQhymKgmZBIEQMAdCOgqyF98fWnR5l1yyczsYkW3VtUrUvRogbP0LNnm/UfIY/022jx1hNXzXorlOjeJc5v/Vt6l9XL2yg3Kki4VxYoRw6X3xc1AAATcj4BuguwfEECZKzWkXs3q0m8lf6J9J8/SH1M96JKYOh3969Rpc3jtFeTrdx9Q4/6j6OiSGTIZntmnXppT76rrN30+rdi+VybLK9QljBdX71sgPRAAARAIQkA3QT524RL1nDhb7hCiWMvB4yh/9ixyWc1rQlCzpEttOqb8rQjy3EHd6d/rt6lAjiwUP26cYNWkFmS+tly7XrJXnTZFMoobK6Y8//Ktu/Ts9Ru5sL3yErj98DGlTpaErt99KBfF/ylfTrnA/bmrN+QuJD//kMdsk9h/8hyVKJhXCj8EGU8NCICAKwjoJsgsdj/Wb0dHxOaiyRMnDJZ3Fjb12sbK3yzIg2ctpII5s1EaIZwLNu6gPXPHU4bUKYOkoRbkQeL8JVt2i51ISlODiqUpW/q0VLZtT0qZJDHlyZqRZq7eRIcXTaMkCeLTLy270Xtvb6rwUyGxY8lr2n30pOjtxqHqpYrRg6cvaPeRk3Rj2zKLrCHIrmiGuAcIgAAT0E2QObGDpy9QqyHjhN84GnWqX51aCH9vhK+L0VsT5LGeK+hvIaBsd0SPtnq3QWJPvLkWBZkPqF0WvL3TsDmLadfscfKa7YeO0+Itu2jl2IFSkGf80UX6tNl4Teblo/uLhe4zyL+1+dI2CwgyHhQQAAFXEdBVkJVM3xO7P4+Yt5T+PHaaLqydT7FjxggmfOoesnpQjwcGeasndW+a07XmQ+49aS4d//cyfZcymcyCv3+A3IOP02BB9hjcw9Tjzlu7peg9TxeDdNEhyK5qZbgPCICAXQR0E+SLYtfn+HFji52ik5hu3HrIeLFxaSrq3bye3YL8WWyQmuO3psHcCNYEuc+UeZRYDLq1qVU5SKHjCN8yBNmudoCTQAAEDEBAN0Get24r7Th8gtZPHGoqVt1eQ6l4gbzUrnaVILuFfPr8WYou92DZhzxgxnw6v2a+vI59ugNmeNLxZTOD4DEnyEoEx7mrN6nZgNF0dvU80zUvXr+lxAniQZAN0MiQBRAAAfsI6CbIfLsuY6aJQbNTlDdrJrr14JHcKWTf/EkUSUQ1tBs+SfqYs2VIK/zET+j1Oy+TIK/bc5D+uX6L0qdKIaMfLq73DBa/rBXk2j2HyJ2ph3doTiV/zEfdxs+gfSfOUe4sGYkjPtaMHyz+nQGCbF87wFkgAAIGIKCrIHN5AkQ88su370QoWiyKGiVykCJ+ENEOvn7+FC928I1O+cTnImSNIyPsNY7sSChC5DiMjc3X14/eeL2nRKJnHLivNQwEQAAEwg4B3QU57BQdOQUBEAABYxGAIBurPpAbEAABNyYAQXbjykfRQQAEjEUAgmys+kBuQAAE3JgABNmNKx9FBwEQMBYBCLKx6gO5AQEQcGMCEGQ3rnwUHQRAwFgEIMjGqg/kBgRAwI0JQJDduPJRdBAAAWMRgCAbqz6QGxAAATcmAEF248pH0UEABIxFAIJsrPpAbkAABNyYAATZjSsfRQcBEDAWAQiyseoDuQEBEHBjAhBkN658FB0EQMBYBIIJ8ufTfwYYK4vIDQiAAAi4B4E9x86Q9ycfU2EjPNq7FoLsHnWPUoIACBiMwIFTF8jbRyXIAef3QZANVknIDgiAgHsQgA/ZPeoZpQQBEAgDBCDIYaCSkEUQAAH3IABBdo96RilBAATCAAEIchioJGQRBEDAPQhAkN2jnlFKEACBMEAAghwGKglZBAEQcA8CEGT3qGeUEgRAIAwQgCCHgUpCFkEABNyDAATZPeoZpQQBEAgDBCDIYaCSkEUQAAH3IKCrIHts2EZlixSkNMmThgq9dXsO0oHT5ylF4kTUrXEtihYlSqjkAzcFARAAAUcI6CrIGSrUpyUj+lLRfLlkXqp26U8bJg2liBEjOpK3EF1TsF5bSpsiKbWrXZX2nzpHy7fvpTOr5lL8OLFDlA5OBgEQAIHQIuBUQWaBvrF1qdMFef/Jc9R80Fi6tX25iWP59r3pJ/Fi6NeqYWixxX1BAARAIEQEnCLItx89oYEzPE0ZGdu1DdUsU1z+Xb3rQDp39Yb8d75smWndxCHy3yzeQzs2o3Geq8jrw0cp4uvFsQUbd9Dm/UfkOd9n+o62TB0ZrIB3xP3eeL2nvFkzmY7V7TWUcmZKT/1bNwoREJwMAiAAAqFFwCmCrLgstD3kcu16UZbv0tDU3p0CBbZ6M+rdrB41rvyrFOSowud7cYMnRRJivHTrnzRwpieN6NyC6pUrRZ+/fKFsVZvQ/ME9qeSP+WzyylSpIR1dMp2SJIhv81ycAAIgAAJGIOBSQWbRvbp5MUWJHFmW/eyV61Sj2yDpauBj7etUpR5N6shj795/oLy1W2ncEL2oYM5sNLR9c6vsSrfuTsXy56ZBbZsYgTHyAAIgAAJ2EXCZIH/y+Uw5qjU1mylzgsxuizy1WgYR5Eod+1LOzOlpdJfWFgvXdMBoev76LW2bPsouADgJBEAABIxCwGWCHBAQQBkrNggisGoI2h6yI4I8YMYC2n30FB1bMoMiRIhgFMbIBwiAAAjYRcBlgsy5YUHeMHkY5c6cwZQ5P39/6TP+VkFetHkXjV6wnC6u93R6VIddZHESCIAACISQgNMFOV2KZGKSRm2qXLwIXbp1l9jtkD97ZsqQJiVt3Ps3TREDfOV/+vGbBPnq3ftUvl1vShQ/HkWOFDTm+fDi6RQRveUQNgucDgIgEBoEdBXkV2/fUZxYMU2Ddj4iMoJvwPHAygSNL76+dOriVfL66C0H3mJEiyrLzdfGiBaNYkSPJv9mF8frd16UMF5cE5e3YqAvcqRIFCtG9CCsfP385CCgOVNfHxqAcU8QAAEQsJeAroJs701xHgiAAAiAQHACEGS0ChAAARAwCAEIskEqAtkAARAAAQgy2gAIgAAIGIQABNkgFYFsgAAIgAAEGW0ABEAABAxCAIJskIpANkAABEBAd0H+9PmzXD4zVowYFPNrTLE1zIfOXKBdh0/S8E4trNaGv38A+Xz5LGOVXWXvRay0t48PJYgbR8Y/w0AABEDAmQR0FeRWQ8aJSR/XKGWSRPTs1RtKmzIprZsw1Gr+ea1jj/XbaPPUEVbPu373ATXuP0osqTlDnrdy5z6qJdZYjqSZmacXrN/Ebie8SFHC+HHp0s07tGxUPyqcO4deySMdEAABEAhGQDdBvn7voZwWzctrKla2bU/q2awulS70g0X0jgoyr31xeeMiihZV/33zboiyNOk/mg4vnibzfevBI6ooysb3g4EACICAswjoJsjnr92khn1H0D/rFpjyyr1kXnMtScL4cq0K9RZLyt8syLNWb6Krd+7LRYHYNXB548Jgq7Wpe8h8rWJzBnanMoV/oL3Hz1CrIeMpupiKnTxxQtozd4Jcw+KXlt2oVY1KNGD6fPIX07GL5s1JtX8tQd0nzCRfP385fXvR8D5B+D4X+X4ppnJnS59W/s67kRRq0D7Iy8ZZFYJ0QQAE3JeAboLMCLkXefvhY5rQvR2VEr3iqFECF6JnsybI3SfMoutblsjzxniuoL+On6Vds8cGqRWty0LdQ2bB/LFBO7q6abEU8q7jZogNT5NR14Y1pSBXL1WMOtarJtPLUrkRVShWmCb36mA2X+aaQqfRUylHhu/EBqpV3LeloOQgAAJOJ6CrIHNu74r97f6YNp+Onr9IFX8uTNP6dLYpyGofMg8K5q7Rgq59FWiFgDVBHjZnMfHCQ7zjNNtrIdC1ewyWPXIWZI/BPShD6pTyWN7aLenwoummBYq0Lwot8Y37/qZpyzfQ3nkTnF4ZuAEIgIB7E9BdkNU4izXrQr83qEE1Sv9stYesFuQvvn6UtUqjYAvZWxPk7uNnyqU9M6ZJFaQ2p/ft/E2CfObyNWoxaBydXT3PvVsJSg8CIOASAroJcs+JsylenFjUv9V/uzzzbxymNrRDM6uCPGPVRto1K9BFwctwlmzRjc6v9QgCwJog8+L0+06epYXDgvqCOQFHe8gPnj4n3pT1H7HgPfYecUlbxE1AwO0J6CbI7729KX/t1tSpfjX6tUhBunz7LnUbN5MOLZxKqZImpnxiw9LGVcqKiIv81HvyXLpy+57sBfOgXt8p82hwuyaUVQyi1eg2kKb17kzlxKL1atMKco7fmtLAto2Frzq/3Fma9+tjn3GZIgVo3rptckBvWMfmDgnyB1GWXMJtMmdAtyB+8HzZMlPc2LHcvtEAAAiAgHMI6CbISvZWifjgkxevyMiKjnWrmXy1vFXTiLlL6JNYtL5X07q0YMN2uZMIC/OLN29lVMPBU+epSsmiVPyHPMFK+1Kcs3bPQWpTs7I89vz1GxqzYAU1rVqOcmZKLxe0n7FyoxhUfEKlC+cXu5AUkuct2LiDfiv5k1joPo78m8/hqAtlwHHi4tUyH2rjQULOn9YaVipDSRMmcE5NIFUQAAG3J6C7ILs9UQAAARAAAQcJQJAdBIfLQAAEQEBvAhBkvYkiPRAAARBwkAAE2UFwuAwEQAAE9CYAQdabKNIDARAAAQcJQJAdBIfLQAAEQEBvAhBkvYkiPRAAARBwkAAE2UFwuAwEQAAE9CYAQdabKNIDARAAAQcJQJAdBIfLQAAEQEBvAhBkvYkiPRAAARBwkAAE2UFwuAwEQAAE9CYAQdabKNIDARAAAQcJQJAdBIfLQAAEQEBvAhBkvYkiPRAAARBwkAAE2UFwuAwEQAAE9CYQTJDv7FwZoPdNkB4IgAAIgIBtAgfPXKBPPp9NJ0YIOL8PgmybG84AARAAAd0JwGWhO1IkCAIgAAKOEYAgO8YNV4EACICA7gQgyLojRYIgAAIg4BgBCLJj3HAVCIAACOhOAIKsO1IkCAIgAAKOEYAgO8YNV4EACICA7gQgyLojRYIgAAIg4BgBCLJj3HAVCIAACOhOAIKsO1IkCAIgAAKOEYAgO8YNV4EACICA7gTCnSC/efee4saORREjRtAdFhIEARAAAWcS0FWQM1SoT0tG9KWi+XLJPJ+9cp3yZcvszPyb0p65ahONX7SKkiaMT89evaH/5clJS0f94ZJ74yYgAAIgoAcBpwoyC/SNrUtFbzWiHnm1mAYLcOGG7eniek+KET2aPO/7ak1p0fC+VOD7rE69NxIHARAAAb0IOEWQWYA37z9Cq3bto9q/lqCaZYqbhPHCtZs0aelaihwpEvVpXp8ypkkpy9J3yjyqXbYEnbp0jQ6cPEffpUxOwzu1oBdv3tKA6QvIWyxJ1652ZSqUK0ewst9++JiOnr9E9SuUMh2r2qUf/fq/H6lDnap6sUI6IAACIOBUAk4R5PSpU9K9x0+pfp/h0m2QKU0q4UpIQJ4bd9CwuUtoxZgB5P3Jh1oMHkcnls2iRPHjEvemo0WNQoPbNqGMaVNRp1FTpQjHFD3eaX060783btOQ2YvoyOLplDxxQptQslZpRLtnj6d0KZPZPBcngAAIgIARCDhFkBUfstZlkbFiAzouBDixEGC2GSs30sxVG+nihoVSkBtV+pWGtG8qj71660UF6rWhW9uXmzgVatCO6pQtSd0a1zbLbrLoea/evZ+evHhFcwd2p9KFfzACY+QBBEAABOwi4DJB9vcPoEyVGlC5oj+aMvbF15f2Hj8jRZcFub1wL/RoUkce9/rwkfLUahlEkCt17Es5M6en0V1amy3cB+9PxP8du3CRfh87g44tnSkH+WAgAAIgEBYIuEyQP3/5QtmqNiGPwT2Dcfnlx3y6CLI64UZ/jJTujjmipwwDARAAgbBAwGWCzDC4F3xh7XyKHTNGMDbf0kNeIHzTK3bspT/njDel23zgGOK9qDyH9g4L9YA8ggAIgAA5XZD3zpsgBtaSU8QIEajZgDF07uoNOrZsJkWLEoW6jJlGtx4+oS1TR3xTD9nbx0eEuTWjqX06UaWfi9CtB4/o17a9aPuM0ZQlXWpUMwiAAAiECQJOFeRZqzfRuIWraJCInGhSpawEsnjLbho8a6H8d6PKZWhIu2by39/SQ+brX4rwuFo9htCdR09kLPK6CUMoW/q0YaISkEkQAAEQYAK6CjKQggAIgAAIOE4Aguw4O1wJAiAAAroSgCDrihOJgQAIgIDjBCDIjrPDlSAAAiCgKwEIsq44kRgIgAAIOE4AJsjB1QAAIABJREFUguw4O1wJAiAAAroSgCDrihOJgQAIgIDjBEJdkP39/clP/BclcmTHS4ErQQAEQCAcENBVkHmVtWJNO0uBZeOpzMp6x5ZY8brJHuu30WYxW8+aXb/7gBr3H0VHl8yQp/n6+ck1lZ1lN+8/pDJtAtfd4Akm26aPoghitiEMBEAABJxFQDdB9vn8mbL/1pT+WbeAYsWITv4BAcRrEh9YMIVSJklkMf+OCjLP7Lu8cZFcQ1lveydWmstfp7Xc7YRt9prNdPD0BVo+ur/et0J6IAACIGAioJsgHz77Dw2Y6Ul/zZtoSnzAjAWUInEiuazmhMWrqbtqHWPlb0WQm1T+lTw37aJujWrSL4XyB6sidQ+Zr+W1lNvWqkJVSxalrN+lIV9fPxq3aCWdFzuSDGzThHJkSCfT8Fi/naqX+olmrt5Ml27eoQnd21HiBPGJ83b30WOx/kVnSiL+VtuL12/o5MWrVP6nQvLnZy9fU4mWXemSWLcZBgIgAALOIqCbILObImvlRjT699ZUrVQxiqTZR497tOrF5pW/WZB/Hzud1k0cQrmzZKR8tVtRT7EmciMh0GpTCzL7nTNVaigWthd76EWLRgGiN85/88puRfPlpEIN2otlN7vRD9mz0C8tu9Hrd15ybeQrt+9Rta4DxDVR6fzaBXTl1l2qIrZ6UudLC1okTUPnLBK7l/hYXIfZWZWDdEEABNyLgG6CzNjYr1u960C53RJv2bRx8jDTdkvWBFntQ+aF6f/XuKN0fVgSZP5d7bJYvn0vHTxznmb37yYvuXzrHjUfNEb6m1mQPQb3oAxiWyk2XvT+L4+JlChe4K4l2nyp71lU5OOx8IvnzJSeNoiyaF8y7tVUUFoQAAFnE9BVkNWZPXD6PLUYNE7sazdWiqG9gvxFuB7Y96zttWoH9dSC3H3CLNqw91AwVpyGVpDz1m5JhxdNl35uW4KsJLjryEmasGgV7Vatt+zsikH6IAAC7kdAN0HmXi7vFK3ex67HxFkUPWo0Gt6xud2C/ElsbMq92KubF9vdQ+bNT6OK9ZX7tqgfrAYdEWReyvOp8BvnyPidTI9dIrwfoDXXhvs1HZQYBEBAbwK6CTL3iH8fM50Oi12heeskjrIo0fx36tW0LlUqXkQK2qkVsylB3Dh0/J9LVK/3cClwig+ZIxoiCr9zz4mz6bZYtH7thME2Bfns6nkUL3YssRbyOypYvy39u95T3vvZqzd06uIVqlCssEM95HtPnlHVzv3ozKq5MtSN9/0bJAYs/140TW/+SA8EQAAETAR0E2ROcd/Js9Rr4hx6+fadFNdmVctRv1YN5c3WC5dCLyG2LNQ1yxSntX8eMAny2SvXaadwCzwV/lqOW1ZvxaTkVOuymLp8PfEu05N6dpCRFiyanUZNpU8i/C51siS0a/Y4OXjnSA+Z7zl/w3YaPX+5jKnOlDaV3H3EmXHPaJMgAAIgoKsgAycIgAAIgIDjBCDIjrPDlSAAAiCgKwEIsq44kRgIgAAIOE4Aguw4O1wJAiAAAroSgCDrihOJgQAIgIDjBCDIjrPDlSAAAiCgKwEIsq44kRgIgAAIOE4Aguw4O1wJAiAAAroSgCDrihOJgQAIgIDjBCDIjrPDlSAAAiCgKwEIsq44kRgIgAAIOE4Aguw4O1wJAiAAAroSgCDrihOJgQAIgIDjBCDIjrPDlSAAAiCgKwEIsq44kRgIgAAIOE4Aguw4O1wJAiAAAroSCCbI93evFvssw0AABEAABFxN4OCZC2KH+8+m20bwO/sXBNnVtYD7gQAIgIAg8OexU+T9yec/QQ44vw+CjKYBAiAAAqFAAD7kUICOW4IACICAOQIQZLQLEAABEDAIAQiyQSoC2QABEAABCDLaAAiAAAgYhAAE2SAVgWyAAAiAAAQZbQAEQAAEDEIAgmyQikA2QAAEQACCjDYAAiAAAgYhAEE2SEUgGyAAAiAAQUYbAAEQAAGDENBVkMu06UEjO7ekgt9nC9XiTVi0inYeOUl/zhkfqvnAzUEABEAgJAR0FeQMFerTkhF9qWi+XDIP/PeNrUspYsSIIcnTN5379v0Hyle7lUzj1vbl35QWLgYBEAABVxJwiiAXzJmNPn/xpdw1W9DZ1fMoZvRoFCVyZFO5bj98TJEiRaK0yZOafnv/0ZuiRY0if79x7yElT5yQ4saKKY8/fPaCfD5/oQypU9hkU6RRB+repDb1mjgHgmyTFk4AARAwEgGnCPKLt+9o9urNdPXOfcr6XRrq2rAW/fq/AuT14SP9ULcNZU6Xij54+9C9x0/pxrZlFDFCBNmbrlyiCO07cY7SpUxGF2/codY1K9GaXfspVbIkdPfRE/L+/JmublpMEcT55mz+hu20/dBxGt+9LZVq1R2CbKSWhryAAAjYJOAUQbbksshbqyUN79SCKv1cRGasbNuelEb0kj0G95SCnCVdGto5a4w8dvnWXarYsS8d9JxCqYUgs2Wq1JCGdWhG9cqXClawT2JR5xzVmtIVIdgPnz2HINusepwAAiBgNAIuFWQW3Qvr5ssesXRFPH1BZdv1kj1ZPta+TlXq0aSOPPZO9KZZwNV+YBboPFkyiIHDQB+x2kq37k5dGtSgysX/R+wSQQ/ZaE0N+QEBELBFwGWC/PHTJ8pZvTnFiBY1WJ4ublgYTJDZvZFHI8iVhCDnzJyeRndpHSSNrQeO0tiFK+kvj4nydxbksm170bUtSyiy8EnDQAAEQCAsEHCZIDMMa1EX2h5ySAS5QL229Er4rc3ZIeHyYB80DARAAASMTsDpgnxl82KK+jXCgl0Q7P/t3bye5OL1wZv+PvcPlS/64zf1kLWQ4bIwerND/kAABMwRcKogc0QF93QHtW1CDSqWFpEVn2SURZTIkSiOCGl78uIVHVs6k5ImjA9BRvsEARBwewK6CrI5ms9fv6GE8eJSJNXkkHcfPtAXXz9KJH6HgQAIgAAIBBJwuiADNAiAAAiAgH0EIMj2ccJZIAACIOB0AhBkpyPGDUAABEDAPgIQZPs44SwQAAEQcDoBCLLTEeMGIAACIGAfAQiyfZxwFgiAAAg4nQAE2emIcQMQAAEQsI+A7oJ89c492nPsDBXJ8z3lz57ZZi62iHUoFmzcQRsmDbV67sdPPnTz/kPKlTmDzTT1PuHslRuULX1as+tw6H0vpAcCIOC+BHQV5KxVGlGx/Lmpe+PaQmS304a//hY7hiyzSnfz/iPksX4bbZ46wup51+8+oMb9R9HRJTPkeVmrNKYLa+fLRe2daTv+Pk4dRk6hfR6T5DrNMBAAARBwFgHdBPnkxSvUcdRUOi6mQivWRAho8QJ5qflv5S3m31FB5sWILm9c5FRB9vXzo+xVm5Cfvz8E2VktEOmCAAiYCOgmyLz7R4kWXS3uoccCql7bWPmbBXmcWDqTp1jzVk9vvD7QFSG0UTU9X3UPOcdvTemT2D0kWtSoNP2PzlTqx/zUpN8oOvbPZUqbIqlwbTyiSxsXUnRx/JeW3cSefhFE+m/FNlCf5dZSvCi+t88nevf+I/n5+dN1se+fOSvR4ndaNLwvlRTlQg8ZTw0IgICzCegmyJzR2Ws2S3FNmjABrRo7UIjjf5/41gR5wIwFdH6NhyzrhWs3qcXgcXRy+ewgZde6LNQ95H9v3KYm/UfT6ZVz5DWLNu+i40KcZ/b7XQry5J4dKHfWjPJYzurNaMYfv4ueex75tzZfyk3PXL5GIz2W0doJQ+Q5EGRnN0WkDwIgoKsgKzhP/HuFWg+dIHqgH0w9ZmuCrPYhcw82W9XGwfbDsybIfafMo1tiUfoiuXPILPDCRbNWb5JpsCB7DO4hNkhNKY/lrd2SDi+aTrFiRLcoyP7CRZGlciO5358i2hBkPCwgAALOJqCbIPPSmrw7h3qQreEfI6ng91nl1kr2CvIXX185YKd2bzAEa4Lca9IcShw/HjWu/GsQXrxztSOCXKfXULmpKl/PduHaLRFlkYZqlC5OLapVcHadIH0QAAE3JaCbII9esFzsIv1MugkUaylcD7zrdM+mdaUg3xQ9Tt4xmnugvGEpiy77kEcvWEZHFgdGT1wRm5s27DeSTq0IdD8oZl6QF0o/8r6TZ2ngTE865DnVdD73tKNGieyQIGvbAlwWbvp0oNgg4GICugky57tky670+p2X6KmWpb3HTtMdMdB3dtU8KYyVOvWVC9L/VvInWrrtTzm4pgjy1GXryD8ggEoWzEuem3ZKX3CCuHGsCnLx5r/LXnGfFvVELzwblW/fmz56+1DDSqVpikiPN0KtUuJ/EGQXNyjcDgRAwHECugoyZ8PfP4Cu3b1PqcU+drFjxgiSs6cvX4tIhy8yEsKcXbp5h3Jk/M7u0ly5fY8ypkkldyBh8/bxERucPqHsYhIH98RhIAACIBCWCOguyGGp8MgrCIAACBiJAATZSLWBvIAACLg1AQiyW1c/Cg8CIGAkAhBkI9UG8gICIODWBCDIbl39KDwIgICRCECQjVQbyAsIgIBbE4Agu3X1o/AgAAJGIgBBNlJtIC8gAAJuTQCC7NbVj8KDAAgYiQAE2Ui1gbyAAAi4NQEIsltXPwoPAiBgJAIQZCPVBvICAiDg1gQgyG5d/Sg8CICAkQhAkI1UG8gLCICAWxOAILt19aPwIAACRiIAQTZSbSAvIAACbk0gmCDf2bkywK2JoPAgAAIgEEoEDp65QJ98PpvuHiHg/D4IcihVBm4LAiDg3gTgsnDv+kfpQQAEDEQAgmygykBWQAAE3JsABNm96x+lBwEQMBABCLKBKgNZAQEQcG8CEGT3rn+UHgRAwEAEIMgGqgxkBQRAwL0JQJDdu/5RehAAAQMRgCAbqDKQFRAAAfcmAEF27/pH6UEABAxEAIJsoMpAVkAABNybgK6CfPvhY0qWKCHFjB7N5VS/+PrRg6fPgt03faoULs8LbggCIAACjhDQVZAzVKhPS0b0paL5csm8DJzpSUPaNaUIESI4krcQXXP60jWq3XOIeCEkCHLdkcXTQ5QOTgYBEACB0CLgVEFmgb6xdSlFjBjR6eVbvn0vbfjrEK0ZP9jp98INQAAEQMAZBJwiyLcfPaGBMzxN+R3btQ3VLFNc/j1i3lKav2G7/HeXBjXkf2ws3mO7taFpyzfQ/SfPKErkyHR48TQ6cOo89Zw4W55Tt1xJGtm5lVkOf0z1kNcMad/UGZyQJgiAAAg4nYBTBFlxWWh7yA37jqCnL1/T7jnjhRuDKGuVxrRgSC/h4sgpBTmS6Elf3OBJUaNEoe7jZ8keb43SP9O4bm3prdd7ylentewB/5AjSzAwzQeOpffe3nTq4lV5rGrJojSxR3uXuEucXku4AQiAgFsQcKkgs+heXO9JMb4O+nHvt9nAMXRr+3IpyO3rVKUeTepI8G/ff6B8tVvJY4qVad2dfi6Qhwa0bhyscrhH/sXXV/SgW9LTV6+pdKvuVKpQfprSu5NbVCQKCQIgEPYJuEyQv3zxpaxVgwspIzQnyF4fPlKeWi2DCHKljn0pZ+b0NLpLa5vkr965T+Xb9w5yvc2LcAIIgAAIhCIBlwmyv78/ZarU0KJAanvI3yrIzJTTVPewQ5Ezbg0CIAACNgm4TJA5Jxkr1qe98ybSdymTmzIWEBAg/bzfKsh8/akVcyhhvDgy7b3Hz1CrIeMhyDabAE4AARAwCgGnC3Kz38pTtV9+opyZ0tPKnX8RR0P0a9VQxgsPnrmQKv5cREZGfKsgT1i8mjw37qShHZrSG68PIppjCc0b1JN++TGfUVgjHyAAAiBglYCugjxr9WaqXLwIpU6WRN702t0H5LF+K9UrV4ryZc8sf3vw9LkMe/v0+TPV/rUk5cuWSf7O1+YX5xTKlV3+/fnLF3HeDmpXu4qpAGt276ckCeJTiYJ5zRaK/cZLt/1JESNEpGZVy9F3qf7riaMdgAAIgIDRCegqyEYvLPIHAiAAAkYmAEE2cu0gbyAAAm5FAILsVtWNwoIACBiZAATZyLWDvIEACLgVAQiyW1U3CgsCIGBkAhBkI9cO8gYCIOBWBCDIblXdKCwIgICRCYS6IF+4fot4cXmOG4aBAAiAgDsT0FWQxy9aRbNWbaKAr0TrlC1Bo2wsBLR5/xExeWQbbZ46wmo9XBeTTBr3H0VHl8yQ512+dY+ypU/jtOU1/zpxlloOHhckT1gXw50fFZQdBJxPQDdBfvjsORVr2oVubFsmZsoFbtlUtHFHmiyWvyz4fVaLJXFUkHmq9eWNiyha1ChOoTRj1UaKFT06NUXP3Sl8kSgIgEBwAroJ8ol/r1C74ZPo9Mo5prtcvHlbLDofWfZk84qlNM+t8TAdU/5WBPnR8xfk9cFbrnFx0HNKsJyqe8h87TuxPGecWDFpcq8OVLJgPnr47AVV6NBHTrkunDsHeQ7tLdOo3PkPGtmpJfHi+J/Fesn1K5QS7pHycmlOXz8/alixjFxbQ2utho6njnWrUZ4sGdFuQAAEQMAlBHQTZM5tjmpNKX7sWLRj1liKJ/5fbdqlMJW/WZB/Hzudrm1eQpEjR6IWwk3g9f4jrR4/KMj1WpeFuofMwpqlciO6vEn0mMVuI/V6D6MKxQpTo0pl6JeW3ShP1oxi95AO5OfvR9nELiWZ06WhHTNHS0Hm68y5IjJVbEDRo0Wjj58+UeRIkWjdxCGUK3MGl1QKbgICIOCeBHQVZEZ4/J9LQhCHS99u7+b1qHWNSpKsNUFW+5C9fXzETiGt6YoQV7VZE+Qxnivoo/cnsWpcM3nJkxevqWiTjnRTuE9YkD0G96AMqVPKY9y7/lvs1Rc7Rgyz+VLu+ezVG7mUJ4sx7/FXvPnvWMrTPZ8RlBoEXEZAd0FWci6WOaZcNZvT1N4dxRKY+e0WZF9f0WutErzXak2Qu42bSRv3/R0MGvd8gwly7ZZ0eNF0ihUjulVB1ibGL5TDi6dTisQJXVY5uBEIgIB7EdBNkDuNnkoZUqWkro1qmggOnLFA+G39xJZLrawK8rx1W2nLtJHyuvcfvalwww707/oFdveQpy5fR3cfPaMJPdoFqz1HBJldGeXa9aI9cyeY0mNBPrNqLsWPE9u9WghKCwIg4DICugnyizdv6cf67Wjb9JGUKW1q4Xtl10Mr2jp9FOXIkE7up7d8dH/KlSkDdRo1hf48dlq6ANiH3HXcDDEYOJtiRo9BuUWvukOdatSpfjWrgpxR+Hh3zhojXREc1cHbQ20Vop45XWrafug4bRI95vliR2tHBJlvzP7wwW2bUHWx6/XB0+ep/YjJwo2y2GUVgxuBAAi4HwHdBFlB13bYROFHvizENZqMLU4UP5489EX0lIs17SSiIHzl79W7DqQTy2fRriMn6daDR3Tr4WPac/S0DDPr0qBGcPeDOKfTqKm0bcZoeYxdGLV7DZERFOV/KkS8Z1+lTn/Q4+cv6beSRWlQu6byvBrdBokBvXaU7uu2UaVadZO98ZgipI2NXyKcD3PWe/Jc2i3yxwvdb5g0zP1aB0oMAiDgUgK6C7JLc4+bgQAIgEA4IgBBDkeViaKAAAiEbQIQ5LBdf8g9CIBAOCIAQQ5HlYmigAAIhG0CEOSwXX/IPQiAQDgiAEEOR5WJooAACIRtAhDksF1/yD0IgEA4IgBBDkeViaKAAAiEbQIQ5LBdf8g9CIBAOCIAQQ5HlYmigAAIhG0CEOSwXX/IPQiAQDgiAEEOR5WJooAACIRtAhDksF1/yD0IgEA4IgBBDkeViaKAAAiEbQIQ5LBdf8g9CIBAOCIAQQ5HlYmigAAIhG0CwQT5zs6VYjc8GAiAAAiAgKsJHDxzgT75fDbdNkLA+X0QZFfXAu4HAiAAAoIAXBZoBiAAAiBgEAIQZINUBLIBAiAAAhBktAEQAAEQMAgBCLJBKgLZAAEQAAEIMtoACIAACBiEAATZIBWBbIAACIAABBltAARAAAQMQgCCbJCKQDZAAARAAIKMNgACIAACBiEAQTZIRSAbIAACIABBRhsAARAAAYMQ0FWQM1SoT0tG9KWi+XLJ4nn7+FCMaNFcVtQvvr5Uvn1vuvXgMXVuUIN+F//BQAAEQCCsEHCqILNA39i6lCJGjOh0HizGWas0piZVytKgtk2cfj/cAARAAAT0JuAUQf4uVQq6LXqpjfuPooXD+lCWdKkpeeKEMu9eHz7Ssu17KFrUqFSnbEmKGT2wB/33mX/ked5i6bl1ew9Swe+zUrH8uenzF19au+cAvX33nupXKEXx4sQ2y6B2zyGUP1tm6tOivt6MkB4IgAAIuISAUwQ5hhDZw+f+pUlL1tLvDWtSqUL56fuM39HpS9eoVo/B1LNpHXr55h0t2LiDLm5YKNwaUYl703FixaB8QlTZ5TFx8RpKkiAevXj9lro3qU0HTp2jv8/+SxfXexKnrzW+/vwaD9q0/zC9eutFDSqWpkTx4roEIm4CAiAAAnoQcIogKz5krcsiU8UGdMBzCqVKmljmvcfE2bT/xFk6tXKOFOTfShaliT07yGPPhRAXatCObm1fbipnzhrNqW3NytSxXrUgZff19aMsVRpRlMiRqYvwGz989oJW7NhLu+eMo0xpUunBCWmAAAiAgNMJuEyQAwICKKMQ5NkDupoK9eGjD3WfMFOKLgty+zpVqUeTOvI4uzby1GoZRJArdexLOTOnp9FdWgcB8+zVayrcsEOQ3vPAGZ605eBROrtqrtMh4gYgAAIgoAcBlwkyR1x8X60ZVfy5cLB8T+vT+ZsE+eWbt1SwftDe9JMXr+h/jTsGEXQ9gCENEAABEHAWAZcJMheAe8GXNi6k6GJAT2vf0kNW0lb80fz30fMXqUHfERBkZ7UcpAsCIKA7AacL8snlsyihGFyLECECVRQuB/b3bp85miKJULiN+w7T3uOn6Vt7yEylxeBx9OT5K9o8dQT5+vlRkUYd5OBhvfKldIeGBEEABEDAGQScKsjthk+iXUdO0uB2Tahx5bIy/62HTqA9x07Lf+fOkoE2TBomxfpbe8icXvOBY2m/iMZg45C6UV1aOYMZ0gQBEAABpxDQVZCdkkMkCgIgAAJuQgCC7CYVjWKCAAgYnwAE2fh1hByCAAi4CQEIsptUNIoJAiBgfAIQZOPXEXIIAiDgJgQgyG5S0SgmCICA8QlAkI1fR8ghCICAmxCAILtJRaOYIAACxiegqyB//ORDbYZNoMdixlyi+HFpdv+ulCBuHKsUNu8/Qh7rt8kZdtbs/pNnNNJjGc0SabrKeEGkqcvX0/F/LtPy0f1ddVvcBwRAwE0J6CbIfv7+lKVyQ1o5dqBc+/je42dUoUMfOiNWW4tvYVF5Zm6vIF+/+0AueH90yQxZVTyz7/LGRWKh+yhOqbr3H70pd80W1L91Iypd+AdKmzypU+6DREEABEBAIaCbIPOC9AOmL6C/PCaa6PLU6cxiF5BujWrRjsMnqHzRH03HlL8VQR7RqQWt2X2AWlQrT+lSJg9WQ2pB5ms7jJhMU3p3pB9yZKWUSRLJ8zmty7fvUttaVShe7Fjyt/2nztOPObPRbjGF+/q9B9S1YS2KHDmS3LXk4dPnYr2LunLqttZ+qNtG9vALimthIAACIOAKAroJMrsrclZvRpumDKdcmTMEyzv3aNWLzSt/s4j2mjSH+oqtl3KL62p0HxRko1QlIbUgn74sdh7pPli6EbKnTyu3dcpXpxW1rFaRfv4hN9XpOZS2zRhF6cVWUr+07Ea8FOfC4X3o6u17NGhW4Gpzy0b3o8u37tIAsW7yzW3LguTXX7gqeDH9dROGiOMLKJu4x/ju7VxRH7gHCICAGxPQTZCZIQvfL626ydXWCufKQZ7DestV3disCfLMVRtp56yx8jzesql06+50TmzHpDZrLotth47R0q1/0ooxA+Ql7PMdNNNTpsmCPGdgN8qcNrU8lke4IbYKsU6TLNAFoc0X//b6nRdxD7lBhdLUtVFNmrlqEx08c4F2zx7nxk0FRQcBEHA2AV0FWcksL0a/aPMuGuu5kk4sm0WJxd541gRZPain7B6t7k1zutYEuafYCmr7oeOmDVMDKEDuq8dpsCB7DO5BGVKnlNnLW7slHV40nWLFiG5RkJ+9ekPl2vWS/m/FzAm3sysH6YMACLgXAd0EecffxylVsiTS7aBY59HTZLTFoLZN7BZkn89fpOvj+talQWrCmiD3m+YhNjSNJ/fTU1ukSBEdEuR3Yvso3s+PBw0hyO71QKC0IBCaBHQT5DW798sQsUMLp5rKU7nzH1S7TAlqVPlXKchXNi2mqFEik5eIYGDXAfdg2YfcbfxMuvFVgBds2EEeG7bRkcXTbQryJbFjdXSxY/WdR0+oTOseQUT89sMnwoec3CFB5htzfo8tnUFJEyagN17vKX+d1th9JDRbKu4NAm5AQDdBZlaz12ymcQtXSdHlnUGyZ0xHm6cExhcPnbuYFm3aJXeGTpowHj14+sIkyEdEhMbaPQcociS+zlcKqzbyQdtD7jByCu0+epIm9uhAlYsXoVmrN9GERavFvaOQz+fPcidrjoF2xGXB+fX6KDZZrdlShtVxr33//MmUNgVC39zgmUARQSDUCOgqyEopeEKFuVCyAD7BwrHAQ+avs0TH3PkhTcMWeb3Ts3U/HAcBEHBfAk4RZPfFiZKDAAiAgOMEIMiOs8OVIAACIKArAQiyrjiRGAiAAAjoRyBCwPl90tULAwEQAAEQCF0CEOTQ5Y+7gwAIgICJAAQZjQEEQAAEDEIAgmyQikA2QAAEQACCjDYAAiAAAgYhAEE2SEUgGyAAAiAAQUYbAAEQAAGDEIAgG6QikA0QAAEQgCCjDYAACICAQQhAkA1SEcgGCIAACECQ0QZAAARAwCAEIMgGqQhkAwRAAAQivP57C9ayQDsAARAAAQMQiPD2yDYIsgEqAlkAARAAAbgs0AZAAARAwCAEIMgGqQhkAwRAAAQgyGgDIAACIGAQAhBkg1QEsgHDL4+LAAAgAElEQVQCIAACEGS0ARAAARAwCAEIskEqAtkAARAAAQgy2gAIgAAIGIQABNkgFYFsgAAIgAAEGW0ABEAABAxCAIJskIpANkAABEAAgow2AAIgAAIGIfBNgtx04Gjq2rAW5cmS0aXFmbJsHZ29et3sPRcO7ePSvOBmIAACIKAXgW8S5AwV6tOSEX2paL5cMj+ZKzWkq5sXU8SIEfXKn9l0bj98Ql4fPwY5du32Peo1eS7d2r7cqfdG4iAAAiDgLAK6CjIL9PWtSymSRpADAgIXlIsQIYLZcvBx9TFb55tLpGiTTjSz3+8u7607q2KQLgiAgPsR0EWQ7zx+SkNmLSJfPz+KHCkSjerSimqU/plYWHNUa0p+fv7y337+/qYeLIt3nxb1acyCFVLA+doZ/brQKI/l9OTlK3lNtChR6NLGhTZr5Y3Xe8pfpzV6xzZJ4QQQAAEjE9BFkBWXBYvsDdFDVlwWhRu2p/oVSlPn+tUlAxbN6qWKUf/WjYjPjRMrJp1f4yGPHf/nMtXrPYzWTRxC+bJllr/xOVN6daTKJf5nlWGljn2pYaUyVLfcL0ZmjbyBAAiAgFUCThVkFlT2KSsujGt3H1CFDn1kT5aPta9TlXo0qSMz+O7DR8pbq2WQXm7Fjn0ob9ZMNKJTS4uF+OLrS1mrNEbvGA0dBEAgzBNwmiB7f/Kh76s3MzvAx71orSB7CUHOoxFk7vnmzJyeRndpbRF0436jKH3qFDSkXdMwXxkoAAiAgHsTcJogKy6Hm9uWiwG74JD1EGR/4ZPOJCI7Lm7wpBjRorl3TaL0IAACYZ6A7oJ8bcsSObDHlq1qY5rYoz1VKFZY/u3r60dPX72mVEkT69JD7jtlHl29c4/WTxoW5isCBQABEAABXQU5W9Umwl8cgQa0aSwH2J69ekP/a9yREsePS2mSJ6XTl67Rlqkj6ftM3+kiyNzLPrRwqhR4GAiAAAiEdQLfJMjmCn/h+k3K9l1aiipC1hS7J8LiPgifcvb0acM6L+QfBEAABJxGQHdBdlpOkTAIgAAIhHMCEORwXsEoHgiAQNghAEEOO3WFnIIACIRzAhDkcF7BKB4IgEDYIQBBDjt1hZyCAAiEcwIQ5HBewSgeCIBA2CEAQQ47dYWcggAIhHMC3yzIT1++FrPl7lP6VCnE5I8kNnH9eew0rfvzAM0e0M3quZ+/+NKL128opQsmfbx8+4547Q2tpUiciCJFcu5i+zaB4QQQAAG3IfBNgly2XS+KKBaqKF34Bzpy7l85M49nzlmzzfuPkMf6bbR56gir510XK8M17j+Kji6ZIc/rMHIKTe7VgaJEjqx75awVL4gT/14Jki7/dmXToiATXHS/MRIEARAAgf+3dx7gURVtG35SN70pHaVIUbqgAlJErDRpgnQMIlWKVBGkilKkF+m9qQgiiCICiiDijwU/ECmKgDSBJKTXzT8zyW62JYTNbtjyzPdxXWbLOTP3nHPve94zZ8aAgNVCPnHuPLqOeVfMZ7xSv7l2w8ajW4vn1JzHuRVrhSwfkz712VpofHOeALRXT569+C+GTl+ILxZNs9cuuF0SIAESMCNgtZBlmuKlwWPVfMe6kpCUrP4z0N9PzVVhuL6d7m8pZLlI6fnLV1W0q83U4vQO83X4DCNk+V1dWTp+OJ4TEfmc9VuxYPM2RIQGQ6vNxE+bPlSTGjXtPQyPV62M7fsPqVVIHhRzaDxZqxo+O3AIySmpKFuyOPavmJ3noSDn3/hoxng1/wYLCZAACRQWAauFLCs4dMZC7P7+KNo0bSAmFOqJ4AB/fb3zEvLouUtVtCvLtn0HMXfDpzi4ep5Rm01TFoYR8qVr/+HFAaNxcttq9Z1pqzZB/hhMGdhLCXlY9w5o+VR99d4jbXpiSNeX0a9DK/W3ab1MQcu0S/OBo3Fs89LC6gPuhwRIgAQUgQIJWW4gNj4B63ftxax1H6O8mCj+m2WzLIrPMEI2zCGnpKWhattItfSTYclLyOMXrRb56mi0zU6NJIobcsM/WKwicinkFRNHiLqUVJur1bE3Dq9dqKL2/Ai5vUi7DOzUBk2fqM1DhARIgAQKlUCBhWxY21aDxor8cUNEtmmWZ8rCUMi5LcGUl5BHzPoQchTGM3WNpdn66QYFErKMsqXAz+40/nEo1B7hzkiABNyWgNVCHrdwpcj/ZuI9g/XuBk2bj6LhYWo+5LxSFnM3bsX+5Vl53Gs3o9BMpB9+/Xh5viPk7fu+x+odX1kcqVGQCFmKvnSxIhja7WW3PSDYcBIggXtHwGohyxtm1dv1Umvevd6+BfYeEeOLvzmI3z5egZCgANTvPhAPliimJqqftGStSm3IlIK8qTfxwzXiRltVlRYYOXsJdovRDJXLPpCnkGt1eB3NGj2ByNbNUKlMaRXJPlalMl5r2xyTl65Dy8b1s1INVqYsMjK0qNiqGxdLvXfHIvdMAm5PwGoh68hdunZDrARyGmVLFUf1CuXEgxRZyzdliuj58K8nkJSaiiaP1cQFMUl9hQdKIS4xSaQb0tS/I8f/QOM6NcSKIqFmHSHfv3LjlhoVIYvMNX956Cga166pRlbI8sffF3D6/EXUr1kVxe+PUK/JyfCLiwc6fH2yxivL0RxlxDbkeGlZzl26rOphWpLECIwb4kEUOSqDhQRIgATuBYECC/leVJr7JAESIAFXJEAhu2Kvsk0kQAJOSYBCdspuY6VJgARckQCF7Iq9yjaRAAk4JQEK2Sm7jZUmARJwRQIUsiv2KttEAiTglAQoZKfsNlaaBEjAFQlQyK7Yq2wTCZCAUxKgkJ2y21hpEiABVyRAIbtir7JNJEACTkmAQnbKbmOlSYAEXJEAheyKvco2kQAJOCUBCtkpu42VJgEScEUCFLIr9irbRAIk4JQEKGSn7DZWmgRIwBUJUMiu2KtsEwmQgFMS8Pjnqy2ZTllzVpoESIAEXIwAI2QX61A2hwRIwHkJUMjO23esOQmQgIsRoJBdrEPZHBIgAeclQCE7b9+x5iRAAi5GgEJ2sQ5lc0iABJyXAIXsvH3HmpMACbgYAQrZxTqUzSEBEnBeAhSy8/Yda04CJOBiBChkF+tQNocESMB5CVDIztt3rDkJkICLEaCQXaxD2RwSIAHnJeD0Qv73+g0Uuy8cPt7eztsLrDkJkAAJCAIFEnL55l2wfuoYNHi0uoL58dffosNzT8HDw8PucJdt3YlpqzajbMli+OfKdYQEBeK3j5fbfb/cAQmQAAnYi4BNhSwFfW7XBnh6etqrvvrtyn19u3IOHixRTL1Wt+sADOnWHl2aPWP3fXMHJEACJGAPAjYR8tWbUZguotVbt2MRERqCCX17oFWTJ1V9d313BOMWrhSxuAcWvz0ET9aqpl5/vHM/TH6jFzZ98Q2On/kLwYEBOLx2Ac5fvop2w8ZDq83EqFdfQdcWz1lstxTy37s36d/rPHoKypcugamDetuDE7dJAiRAAnYnYBMh161RBWnp6ajaNhL/+3QVNL4+8PbywsjZS/DpNwdxcttqZIr/1Wj/Gg6IqPaB4kUhhSpTGz+uX6Rk3GboOJy7dAUVHyyF7XOm4MqNm3i2zwjsWTJTvWZaqrWLxMT+r+JlkSKRpUKLrvh66QdKyiwkQAIk4IwEbCJkXQ7ZNGUh/z7+yQolXFk+//YHvDlzEf76YqMScv+OrTFSRMGyxMTFo/YrfYyi3iavDcWLDZ7AW726mLHNzMxE9fa9kJScIlQP7F70Ph4uV8YZ+4B1JgESIAFFwG5CzsjQomKrbhYxy1SDFPKAV1pjRM8sIcclJKJmh95GQm75xhhUq1gO04b0MduO3PackQPRsnF99d5DIkLeNnsSalauwK4lARIgAackYDchp2dkoFKr7kaCNSRUECEfO3kaHUdOMtr2tn0HMWLWklz355S9w0qTAAm4FQG7CVlSlNI9tnmJutFnWgoi5F9OncXLwycYyXftjj2Ysmwdzol0CAsJkAAJOCMBmwt5/Xtvo5ZIGwT6+2HsghXY/OV+fL9mvvq77ZvvwNfHB3s+nFHglEXll7rjmbq18b5IZ8iHQ1oNehvrxJjohtljop2xM1hnEiAB9yZQICE/1WsoZo/ojzpVKiuKe48cE0PcVqnhau2zRz/I9MLg6QvEMDatGifc+cWsccLyu91bPofe7Vqov+MTk9BC5Iy/WzVX3yO9J85EpTIPYFRkJ4u9NGrOUnx37Lh6Sm/rrIkofn+Ee/cmW08CJODUBAokZKduOStPAiRAAg5GgEJ2sA5hdUiABNyXAIXsvn3PlpMACTgYAQrZwTqE1SEBEnBfAhSy+/Y9W04CJOBgBChkB+sQVocESMB9CVDI7tv3bDkJkICDESh0IV+/FS1mcruFRx/mnBMOdiywOiRAAveYQIGE/M2PP6Pfu7PV3MWyzBzWD+2fbZxnk+SMbyu2fYHP50/N83NnL/yLHuPexxExPacs/0XFoEh4qN1WI9HNjyH3FR4SjIOr56mnC1lIgARIoLAIWC3k6Ng41OnUF6d2rIVGPA4tp8Os1fF1fPLBBPV0XW7FWiHLuS9OfSb2JeZatnXRirrL+ZRPbl8Nf41GTBN6GHM3fIr9K2bbelfcHgmQAAnkSsBqIR/5/aSaXU2u8qErm7/cp9a2a9GoHiLHT8fqyaP17+n+1gm5UpnSOHL8Dzz/5GOY0K+nWQUNI2T5XfmIdKPaNTCoSzs8VqUSbscnYND788Q8FjfVI9iRbZqpbYyeu0xN6zl2/kpcvXlLzbdcT0yg//qkD3ArJhZjenfBc/UeM9pfQlKymltZtwJJrJgKtJbJVKA8hkiABEjA3gSsFrKMKh9p3QOtn26AyQN6wU/ja1RX0yWWdH9LIQ+dsVClBEoWvR/NB4xG3eqPYNKASKPvGwpZRt9yvuM/tq9R+8kQ82LIqT3laiIPiRVCXug3CsN7dsQLTz6Opr2HIURMiL9VzI0s89WNI4egaEQYDq9biOtiqakGPQdZnKKzXrcBagUSuQ1ZvxJF7rM4Mb69O4TbJwEScF8CVgtZIpMTBs1YswXLtu5CUIA/Fok182QUK0teQjbMIcvo9Iku/US6YE2uQtZtT5eyWPLJ55DCnjVigPrO+cvX0GbIWBzfulIJecXEEWIpp5LqPRnpfifkHyoid0v10u1Ul0MuJX4k5GT5UuDMIbvvicGWk8C9IFAgIRtWWC5O2mzAW9g0fRxqP1wx30JOTxcT2YupNA0XLJXbNb2pZ5hDHv7BYmzff8iMl9yGmZA79hZplRy5mv5QyI1IAT/Rtb/KUctyTUTSz/YZjhNiLUAWEiABEigsAlYLeeryDShXqgS6NM+aTlOWMfOXq1EQ74mVn/MbIScmJ4ubg/2EDNcYtTkvIcsVrmVkPXmgcZpDbsAaIZ8R0fbA9+Zir1gkVVcsibuwOoX7IQEScE8CVgv51N8X0G7YeJULLhIepvK6dcQipQtF2kJOEl+xZTfsE6MUHhQrTC8VKYbpq7eoKFiXQz6zc71amfqlwWNR4YFSmD0yK/2gK5aE/OOGRSIfHI5EsbCpXHX66MbFat+/n/kLXx76CaN7dbZKyHKh1Gript7vIuUh0xT7f/pV5ZHl3ywkQAIkUFgErBayrODFq9fRd/JsnL5wSUwS7yVyyEPxbL06qu6nzl9E68FvI10sdiplO2zmYr2QT/51Hv8nJq7/7c9zapTFknHDzNprKuQvDx0VUew8sbDpAHEjsSH+uXIN7d4cr1arrl+zCta+O0YJ3poIWe783MXLaC+WhZLpi0cfqYANU8fC309TWP3A/ZAACZBAwVadJj8SIAESIAHbEShQhGy7anBLJEACJEACFDKPARIgARJwEAIUsoN0BKtBAiRAAhQyjwESIAEScBACFLKDdASrQQIkQAIUMo8BEiABEnAQAhSyg3QEq0ECJEACFDKPARIgARJwEAIUsoN0BKtBAiRAAhQyjwESIAEScBACFLKDdASrQQIkQAIUMo8BEiABEnAQAhSyg3QEq0ECJEACFDKPARIgARJwEAIUsoN0BKtBAiRAAh7/fLUlkxhIgARIgATuPQFGyPe+D1gDEiABElAEKGQeCCRAAiTgIAQoZAfpCFaDBEiABChkHgMkQAIk4CAEKGQH6QhWgwRIgAQoZB4DJEACJOAgBChkB+kIVoMESIAEKGQeAyRAAiTgIAQoZAfpCFaDBEiABChkHgMkQAIk4CAEKGQH6QhWgwRIgAQoZB4DJEACJOAgBAok5Nqd+mDx20NRr0aVQm/O9VvRaPfmeFy9eQvhIcHYNmcyypQoVuj14A5JgARIwFYECiTk8s27YP3UMWjwaHVVH/n3uV0b4Onpaav65bqdii27Yd7oN9C8UT18e+w39Bo/A6d2rIXGx8fu++YOSIAESMAeBGwi5FoPV0R8QhLq9xiIQ2sXICw4EAF+fvr6fnfsODS+PkaR9PWb0QgJCoCvjzf2/vgLalQqj5JF7lPf+eXUWcTGJ6DJ47Ustvn7X35H5PjpQv4b9e+/0H8U+r7cCu2eaWQPTtwmCZAACdidgE2EnJSaik/3foc9PxzD8/UfQ/eWz4uouRqu34pCgx6D0KzhE7h5OxZHfz+FsyKC9hIRtIymK5ctjejYeNSrWQWfH/hBfef/Tvypot4jx0/iRlQMzuxcbxZxr/psNz766gD2LJmpBzRg6lykpqVhxcSRdofGHZAACZCAPQjYRMi5pSwebt0DH38wETUqlld17/zWFETFxCqRSiE3ql0Da999S7337/UbaBw5BCe3rYa/n0a9VqlVd4yK7ITe7VoYtf3kufNoNXgs/t69Sf9659FTkJicgh3z3rUHJ26TBEiABOxOoEBCtnvtuAMSIAEScCMCFLIbdTabSgIk4NgEKGTH7h/WjgRIwI0IUMhu1NlsKgmQgGMToJBN+iczMxPyHwsJkIB9CRTG8wr2bYHtt04hGzDNyMhA4tZ3kHbuiO1Jc4skQAJGBDSdZiKgfB14eHiQTDYBCjkbRLqQcfzyXtDeusiDgwRIoJAI+HScjsAKj8OTUlbEKWQBQStSFIk3LyN1WfdCOgy5GxIgAR2BgJF71JQHjJQpZMhscXp6Om6fPQbPbWN4lpAACRQyAe8huxDo7w8vL/vPgVPITbvr3bl9hCxv4KWkpiHmzE/w/fyduwbIL5AACRSMQObAHWJem0D4eHsVbEMu8G0KWSfk00fhu3O8C3Qpm0ACzkUgc+BnQshBFDJzyFBD3FSETCE711nM2roMAQo5pysZIVPILnNisyHOSYBCppD1BBghO+dJzFq7DgEKmUKmkF3nfGZLnJwAhUwhU8hOfhKz+q5DgEKmkClk1zmf2RInJ0AhU8gUspOfxKy+6xCgkClkCtl1zme2xMkJUMgUMoXs5Ccxq+86BChkCplCdp3zmS1xcgIUMoVMITv5Sczquw4BCplCppBd53xmS5ycAIVMIVPITn4Ss/quQ4BCppApZNc5n9kSJydAIVPIFLKTn8SsvusQoJApZAr5bs5nD094i8Uo0y8cF8urpN7NN+32Wa+yjyIz6jK0sf/ZbR/csDEBz2IV4OHrh4xLJ2yKhkKmkG0u5NDZf8Cr1CNigmUtojqZr3wQ8ZFcLAqIesV4hd3QWSfhVboKkr9agMTVg40OdP8u78O/9VtI//N7xE5orH/Pq1xthE77Oc+TQrefsMUX4XnfA9BGX0VMv5Jm39E0iURg/1UW6+1T5yUED98KePnkfE+0L35xJFIPrsv3Salru/xCTN8S0MZcs/hdw8+ZcpJf8PANQNiHl+ARFGH0/bRfdyNuWguj17zK1EDoDPEDIhbpinrFfGkgD79AhK+NV9+J6V8aWiF3WfxfngD/DhOhvfEPYt4oZ7RNo/p1EtsUU7eaFs8iZRC28B/1stym3LZhye04MNy2JTjRPYORmZxVX59azRA8Zrf6b0ucQuedhVfxCkja/h6StoxVn9M83QuB/VZa5G74ojwG5bFoWEJn/AavMjWNXtPeuCD4lL3j9vLzAQo5hxLnQ7bRfMh6IQu2Kd8sRcLyfvk6EQsq5NSftls85uNntVOve4QUQfjyrCjS0skbvjYOHn5BSPl+PRIW9tBvy6dOSwSP2qn+zhCRcfK+5dA06g7vinXVa/FzX0HqkY/zc77BUDbpp39A7PgGZt/ze3EQAiLn61+3VNeILRmiQZ7ITElA0tZJ8Cr5sBKNLNpr5xAzpKLBke2BiC1a9Xfs2HpIP3fUaJ9+LYYioMcc0bg0RHXx1b+XXyHHTX0Bab9/bdYO3Q+gqpMVQk47uR+ZCbfNtpswvwsy05LV64ZCzkyIQXSvcKPPWxKyT7VnoHlhoP5zsh89w0siMz4KaX98p389Zf8KyB84XQlfGSV+ALO2n/T5DCA1Cf7txco6cpVoE3b5OhgsfIhCNjhsM48fMP+Zt5asE37PVvMhGwpZYojuESjEkagnYq8I2ZK4TLtBt+/YsXWFmH7KeVtEvhGbslIQhhGY/Fsnv/h5nZH6w5acE/nhhgiZ9L36W10JiIj5TsU4+rMcsUasF6x8/fWbMruSmHNKCTj99GEh9IY5u/T2RcTGlKw2mDAPnS4iu7I1kf73z4gd85hRNcPXxcNDE4ikbe8i6aOctRTzK2RoxZVQZ5MrIU9vRGxO0+/HGiHHDCoP7X/n80RqKGT5wYRlfZAifjB1xZKQTTcYNPQj+NbviNRDmxC/oKvF/Wme6onAAWuy+trkyi58XaLg54+0X75A3PSWdzoE8nyfQs7BwwjZxhFyxiWRgnigqopmorvlCOZeCjl43Dfwqf6MWRTpU6eViII/VxFndI8g/VHhW7slgkZnRccWo+pVImoKDEfs5KZIP3ngjiejru3yUlhGwvEi2ks9vFn/Pc/wEghbcgUZV04L6Va2uF/dNkx/OOSHg0QbfEVbMuNvIfq1+3O2W6w8wub/pVILUTLFoCteQpybssSpomMR6elKfoQseUmZq20apC18n2iLoOHbkHr0U/jWbW9VhHxXQtamA+JHwLR9thKy7uopfnorpP6yy6ifPUOLIWyZSD3lkqK740Fh8AEKmULWE7B1hJws8naa5kPUCSvTBrqUwr0UskdAKMJXx5iduOErb6l8bNKO6Uja9JaeSWDfFdA0fQ1pJ/YhbsqzZudW8JgvxWXzi+bRai5noV6m4tI6fFU0tLcuIWbAgzn7e2O9SId0Q9x7LyL47a/MhCxz7DK1k9sPhJSSiky1GSJqFYIyKLp93x70EDL++1u94yv2FST2qY27iZjeRYw+nx8hx05qgpAJ3yJF5NETFvXUf193VREz+CH1Q2DvCFlegaX9vge+j7dFxuU/cXuYuIchiq2ErD9mu/kBaVlXIZbY5ucqLS9BU8gUsl2FnLR1MsI3ZuX7dFGUvYRs6caSUTSY3VLd/mMGloH25kX1qr5OJqmH4Hf2wadaU6TsXYKEFf3NziWZ65WRrjb2BmJeL5rXuWa8H3HZG74hGR4+GqPI25CNJU6+DTohaHBWRJ3bya++ZxoJi8/rLs3TTuwXPy7PqG3ofogSVg1Cyp6Fdy1kWQfTeso8vIwo5Q3LOCHs0Dl/WiVkeRNS/t+wyJuL2psX9C/pUhZSyNE9g/S58tvDqggxn7K9kDuLm7oyGqeQ73isF/QDTFnYOGUhI+REcWc7ZMIBeFdpgszb1xHdp7jZCazruILe1LN0AFiSVkCP2fBr8SYyzv+C22/VgXelJxEy5bAYfXFFjL4oZbSZ4PEH4FO1iZDVIiSsesNcyD3nwK/5UGjFDaGY1+674zGoj1LfrKxuJMntJ++eh8S1QwWjp7KizeybihaF3LALggZttErInhGlxMiMf40urXP7cZQ7yE+EHCUEFTrrfyqnrWMdKOqnEfWMHfO4SFclIfSDE1YK2RxnzMCyuQtZ5M09i5ZD2AIR/WffZLN5hCyvOsTVB4V8x0O9wB+gkO0kZNkz6i6/uBsd/WoIwtfEWhRKQYWc38tFD39ZB3H3PjvnF7b4khgOV1oJV4rXsAQO3gRNg85I+3kX4ma0MjvIgoZtVTlSndzvdBTqBBgncs5pIues/tbJI3vYX3TPEDGsK87iD5d3hboImfrjnYVsIWWh+iF7yGH0q6HwfqQxgkV+POOKuMR/M+sS37DkS8hdNWI8dprYrlZ/lWAYoXuVrYXQ6b9aJeS7ySGrCFkIWZawpVfhGVZcjHz5BF7lHjUb9mbazvzc1NP/cKn2mo8/z+uH7U7HhOH7TFnk0KCQ7Shkr6LlEbog66aSGiYkiqlAQ94/ph66SPl2DRI+jDQWY18x1KxpbzW8Sg6z0hXDccj5FbKRmMSYVnl5bak+8jXfRl1FjnWDkGa6uOllMAY5uwK6k1/mT2Ue9U5Fd+LGz2ovcurb9FcPMo8sh4llJt5GdGSYSmXIlIaleuXIQdyEEzI0LLoUSqYYkhXdPcBcsmKYln/HSUj98RNxZVAfnhGlRX4/qy7WCFnerJU3baWQRceKH1yRoxc/dumnDiJ24lPwzh6JUhg5ZJ2QPcRok/Ds0SYZYgig6Thka4QcLka+eIiRLzI3LXPUhkXee5Cpn9yOoTsdExSyZUIUsh2FLJHLm2nyppqumArUv+3b8O801WI0pct1Jq4ZiuQv5xVYyJqG3RA4SNzMEg+JyJENMt8o846WSq5D5cTDGRHrE9RXoruLoX2pOUP7cjsJTYUsR1LIHKvKS4obcokrByL568V5Cjls+XV4hhS1PMY7+0okdlx9pJ/NiqSN5KG7qSmjPCGuvCSSnwhZJ2Q5HleKXv4QSHHp+vZeCFm2SdPkVfGQz2p90w0fDLFGyAGvLYLf8wMs8goVNy29xCiW3K40KOS7IZDzWQrZzkKWqA3H4ZpFtCIqjMiOCjMu/g/yDr4sMgft9WANizeqDCPkuJltLPZ82rEd5q8bjNmVb8ZNfV5E38K5PngAAAPHSURBVHstft+/3Vj4v/Kuei/ps/eRvHOWypHqHt5I2b8SCUt75+uoMxWyYpItUUM55hUhy4cT5EMKsqSfOSJSKS+JSLekSg3Ih0XkKIAoORogl6LGW2c/cZgmItk4EclaKncjZMO+NYzOCyJkOaZYe9v8cXD1sEb28Dyjm3rZKQtdW9SY7OwfnYIKWbVPx02cJ9H9xb0GcdUkr+q87hejZCzcRM3XAWHyIaYscoBQyIUgZM2LbyAwMutxVEspBs8iZREmHneFGB9rVEREJ58+042K0L13N49Om54gurGl+TmZArpMg1/r0WbnWOqPWxE/p0O+zz1LQvZrNQIB3WaqiFZGtrLkJWT5vlfpqgidKR6H9jR+IEM+bRZ9h5uLvvU7iBEXWU8W3h5VSz19aBMhyx9T8aNqmIsviJBzgypTOjK1I0teQtaN6Zafs4WQ5XZkOkbegzA+NtPEE4KiTgYPP+X7gKCQc0VFIdtIyNYejIbfk3k5v2f7iPtumeLJq2XiEdpoW2y2wNvwqf6suhmW8c9vFvOuBd7BXW7AU0Rn8vI8M+4WkvcsFt9264dN75Ke9R/3azlcPU2ZItJnmUlZ9yBsURgh51CkkB1IyLY4uLkNEnA2AhQyhawnYKsn9ZztJGB9ScBRCFDIFDKF7ChnI+vh9gQoZAqZQnZ7DRCAoxCgkClkCtlRzkbWw+0JUMgUMoXs9hogAEchQCFTyBSyo5yNrIfbE6CQKWQK2e01QACOQoBCppApZEc5G1kPtydAIVPIFLLba4AAHIUAhUwhU8iOcjayHm5PgEKmkClkt9cAATgKAQqZQqaQHeVsZD3cngCFTCFTyG6vAQJwFAIUMoVMITvK2ch6uD0BCplCppDdXgME4CgEKGQK2YKQf4Lvzncc5RhlPUjAbQhQyBSymZCjr5yHZlM/tzkJ2FAScBQCFDKFbB4hx8fDe+MAeMZdd5TjlPUgAZcnENdkGEKqP42gAH/4eBuvlejyjbfQQC7hlL2EU1xiIqJvxyL466nQ3DjjjscC20wChUrgZt2+8K3SBGHBQQj0p5AlfApZQEhLS0dSSgoSkpIRl5CAVPE3CwmQgH0JBPr7icg4QMhYAz9fDby8PO27QyfYutsLWfaRVkTJUsrJqalISk5BulbrBF3HKpKAcxPw9fZGgJ8GGl9feAsZe3h4OHeDbFB7CjkbopJyejrSxT/xnywkQAJ2JuDp6SHyxt5Cxl6UcTZrCtngoJMrUEsxs5AACdifgIyHZVTMyDiHNYVs/+OOeyABEiCBfBH4f/OKGwpPDg1DAAAAAElFTkSuQmCC;" vertex="1" parent="1">
          <mxGeometry x="17" y="17" width="356" height="633" as="geometry" />
        </mxCell>
        <mxCell id="xRkAMs9unRZzOuT88SSD-45" value="" style="rounded=1;whiteSpace=wrap;html=1;strokeWidth=3;dashed=1;strokeColor=#C2C2C2;fillColor=none;" vertex="1" parent="1">
          <mxGeometry x="30" y="20" width="330" height="100" as="geometry" />
        </mxCell>
        <mxCell id="xRkAMs9unRZzOuT88SSD-47" value="&lt;font style=&quot;font-size: 17px;&quot;&gt;En estos campos, se mostrará la fecha elegida y la cantidad de movimientos registrados ese día.&lt;br&gt;&lt;/font&gt;" style="rounded=1;whiteSpace=wrap;html=1;strokeWidth=3;" vertex="1" parent="1">
          <mxGeometry x="420" y="40" width="240" height="110" as="geometry" />
        </mxCell>
        <mxCell id="xRkAMs9unRZzOuT88SSD-51" value="" style="rounded=1;whiteSpace=wrap;html=1;strokeWidth=3;dashed=1;strokeColor=#C2C2C2;fillColor=none;" vertex="1" parent="1">
          <mxGeometry x="17" y="120" width="353" height="470" as="geometry" />
        </mxCell>
        <mxCell id="xRkAMs9unRZzOuT88SSD-55" value="&lt;font style=&quot;font-size: 17px;&quot;&gt;En esta lista, podemos ver los datos de los movimientos registrados este día. Se pueden borrar manteniendo pulsado sobre ellos y eligiendo la opción de eliminar el movimiento.&lt;br&gt;&lt;/font&gt;" style="rounded=1;whiteSpace=wrap;html=1;strokeWidth=3;" vertex="1" parent="1">
          <mxGeometry x="468" y="170" width="264" height="140" as="geometry" />
        </mxCell>
        <mxCell id="xRkAMs9unRZzOuT88SSD-46" value="" style="endArrow=none;html=1;rounded=0;strokeWidth=3;exitX=1;exitY=0.5;exitDx=0;exitDy=0;" edge="1" target="xRkAMs9unRZzOuT88SSD-47" parent="1" source="xRkAMs9unRZzOuT88SSD-45">
          <mxGeometry width="50" height="50" relative="1" as="geometry">
            <mxPoint x="336" y="194.5" as="sourcePoint" />
            <mxPoint x="420" y="194.5" as="targetPoint" />
          </mxGeometry>
        </mxCell>
        <mxCell id="xRkAMs9unRZzOuT88SSD-54" value="" style="endArrow=none;html=1;rounded=0;strokeWidth=3;exitX=0.99;exitY=0.182;exitDx=0;exitDy=0;exitPerimeter=0;" edge="1" target="xRkAMs9unRZzOuT88SSD-55" parent="1" source="xRkAMs9unRZzOuT88SSD-51">
          <mxGeometry width="50" height="50" relative="1" as="geometry">
            <mxPoint x="830" y="200" as="sourcePoint" />
            <mxPoint x="380" y="355" as="targetPoint" />
          </mxGeometry>
        </mxCell>
        <mxCell id="xRkAMs9unRZzOuT88SSD-67" value="&lt;font style=&quot;font-size: 17px;&quot;&gt;Con este botón, se accederá a la pantalla de creación de movimientos, registrando un movimiento en la fecha elegida en la pantalla anterior.&lt;br&gt;&lt;/font&gt;" style="rounded=1;whiteSpace=wrap;html=1;strokeWidth=3;" vertex="1" parent="1">
          <mxGeometry x="410" y="390" width="314" height="130" as="geometry" />
        </mxCell>
        <mxCell id="xRkAMs9unRZzOuT88SSD-68" value="" style="endArrow=none;html=1;rounded=0;exitX=1;exitY=0.5;exitDx=0;exitDy=0;strokeWidth=3;" edge="1" source="xRkAMs9unRZzOuT88SSD-69" target="xRkAMs9unRZzOuT88SSD-67" parent="1">
          <mxGeometry width="50" height="50" relative="1" as="geometry">
            <mxPoint x="336" y="695" as="sourcePoint" />
            <mxPoint x="420" y="695" as="targetPoint" />
          </mxGeometry>
        </mxCell>
        <mxCell id="xRkAMs9unRZzOuT88SSD-69" value="" style="rounded=1;whiteSpace=wrap;html=1;strokeWidth=3;dashed=1;strokeColor=#C2C2C2;fillColor=none;" vertex="1" parent="1">
          <mxGeometry x="80" y="590" width="230" height="60" as="geometry" />
        </mxCell>
      </root>
    </mxGraphModel>
  </diagram>
</mxfile>
